<svg aria-hidden="true" style="position: absolute; width: 0; height: 0; overflow: hidden;" version="1.1" xmlns="http://www.w3.org/2000/svg" xmlns:xlink="http://www.w3.org/1999/xlink">
<defs>
<symbol id="icon-behance" viewBox="0 0 32 32">
<path d="M12.915 15.060c0 0 3.028-0.225 3.028-3.776s-2.478-5.284-5.616-5.284h-10.327v19.846h10.327c0 0 6.304 0.199 6.304-5.858 0 0 0.275-4.928-3.716-4.928zM4.55 9.527h5.777c0 0 1.404 0 1.404 2.065s-0.826 2.364-1.762 2.364h-5.419v-4.429zM10.060 22.319h-5.51v-5.304h5.777c0 0 2.092-0.027 2.092 2.725 0 2.295-1.53 2.555-2.358 2.578z"></path>
<path d="M25.038 11.049c-7.632 0-7.625 7.625-7.625 7.625s-0.524 7.586 7.625 7.586c0 0 6.791 0.388 6.791-5.277h-3.492c0 0 0.116 2.134-3.182 2.134 0 0-3.492 0.234-3.492-3.453h10.283c0 0 1.125-8.615-6.907-8.615zM28.143 17.015h-6.519c0 0 0.427-3.059 3.492-3.059s3.027 3.059 3.027 3.059z"></path>
<path d="M28.957 7.133h-8.188v2h8.188v-2z"></path>
</symbol>
<symbol id="icon-brand" viewBox="0 0 32 32">
<path d="M18.51 19.95c0.518 0 0.938-0.42 0.938-0.938v-4.017c-0.144-3.907-5.751-3.9-5.892 0v4.017c0.046 1.243 1.829 1.242 1.875 0v-1.071h2.142v1.071c0 0.518 0.42 0.938 0.937 0.938zM15.431 16.067v-1.071c0.052-1.419 2.091-1.419 2.142 0v1.071h-2.142z"></path>
<path d="M0.938 19.95h2.51c2.238 0.001 3.284-2.795 1.631-4.262 0.918-1.59-0.291-3.664-2.133-3.638h-2.008c-0.518 0-0.938 0.42-0.938 0.938v6.025c0 0.518 0.42 0.937 0.938 0.937zM1.875 13.925h1.071c0.748 0.024 0.758 1.109 0 1.137h-1.071v-1.137zM1.875 16.938h1.573c0.753 0.027 0.752 1.111 0 1.137h-1.573v-1.137z"></path>
<path d="M12.419 14.996c0-1.624-1.322-2.946-2.946-2.946h-1.506c-0.518 0-0.938 0.42-0.938 0.938v6.025c0.046 1.243 1.829 1.242 1.875 0v-1.071h0.18l1.734 1.734c0.366 0.366 0.96 0.366 1.326 0s0.366-0.96 0-1.326l-0.959-0.959c0.746-0.535 1.233-1.409 1.233-2.395zM9.473 16.067h-0.569v-2.142h0.569c1.419 0.054 1.418 2.088 0 2.142z"></path>
<path d="M28.050 12.050h-0.502c-0.518 0-0.937 0.42-0.937 0.938v6.025c0 0.518 0.42 0.937 0.937 0.937h0.502c5.234-0.199 5.23-7.703 0-7.9zM28.486 18.029v-4.058c2.173 0.496 2.171 3.563 0 4.058z"></path>
<path d="M22.46 19.013v-2.054l1.237 2.473c0.085 0.169 0.434 0.639 1.054 0.493 0.423-0.1 0.722-0.478 0.722-0.913v-6.025c-0.046-1.243-1.829-1.242-1.875 0v2.054l-1.236-2.473c-0.194-0.389-0.631-0.593-1.054-0.493s-0.722 0.478-0.722 0.912v6.025c0.046 1.243 1.829 1.242 1.875 0z"></path>
<path d="M31.063 22.092h-30.125c-0.518 0-0.938 0.42-0.938 0.938v4.017c0 0.518 0.42 0.937 0.938 0.937h30.125c0.518 0 0.937-0.42 0.937-0.937v-4.017c0-0.518-0.42-0.938-0.937-0.938z"></path>
<path d="M31.063 4.017h-30.125c-0.518 0-0.938 0.42-0.938 0.938v4.017c0 0.518 0.42 0.938 0.938 0.938h30.125c0.518 0 0.937-0.42 0.937-0.938v-4.017c0-0.518-0.42-0.938-0.937-0.938z"></path>
</symbol>
<symbol id="icon-close" viewBox="0 0 33 32">
<path stroke-linejoin="round" stroke-linecap="round" stroke-miterlimit="4" stroke-width="2" d="M27.049 5l-22 22"></path>
<path stroke-linejoin="round" stroke-linecap="round" stroke-miterlimit="4" stroke-width="2" d="M27.049 27l-22-22"></path>
</symbol>
<symbol id="icon-clutch" viewBox="0 0 32 32">
<path d="M23.857 22.527c-1.66 1.474-3.806 2.274-6.024 2.245-5.105 0-8.854-3.769-8.854-8.937s3.629-8.778 8.854-8.778c2.22-0.030 4.376 0.754 6.062 2.204l1.117 0.961 4.946-4.97-1.235-1.163c-2.986-2.683-6.874-4.143-10.888-4.087-9.174 0-15.835 6.653-15.835 15.792s6.821 15.993 15.835 15.993c4.049 0.055 7.969-1.435 10.968-4.168l1.196-1.123-5.025-4.97-1.118 1.003z"></path>
<path d="M17.595 21.205c2.93 0 5.297-2.387 5.297-5.331s-2.375-5.331-5.297-5.331c-2.922 0-5.297 2.387-5.297 5.331s2.375 5.331 5.297 5.331z"></path>
</symbol>
<symbol id="icon-code" viewBox="0 0 32 32">
<path d="M8.469 20.069c-0.625 0.625-0.625 1.638 0 2.263s1.638 0.625 2.263 0l4-4c1.067-1.067 1.067-2.796 0-3.863l-4-4c-0.625-0.625-1.638-0.625-2.263 0s-0.625 1.638 0 2.263l3.669 3.669-3.669 3.669zM17.6 19.6c-0.884 0-1.6 0.716-1.6 1.6s0.716 1.6 1.6 1.6h4.8c0.884 0 1.6-0.716 1.6-1.6s-0.716-1.6-1.6-1.6h-4.8zM32 9.895v13.011c0 1.418 0 2.64-0.131 3.619-0.141 1.049-0.459 2.054-1.275 2.87s-1.821 1.133-2.87 1.275c-0.979 0.131-2.201 0.131-3.619 0.131h-16.211c-1.418 0-2.64 0-3.619-0.131-1.049-0.141-2.054-0.459-2.87-1.275s-1.133-1.821-1.274-2.87c-0.132-0.979-0.132-2.201-0.131-3.619v-13.011c-0-1.418-0-2.64 0.131-3.619 0.141-1.049 0.459-2.054 1.274-2.87s1.821-1.133 2.87-1.274c0.979-0.132 2.201-0.132 3.619-0.131h16.105c0.035 0 0.070 0 0.105 0 1.418-0 2.64-0 3.619 0.131 1.049 0.141 2.054 0.459 2.87 1.274s1.133 1.821 1.275 2.87c0.131 0.979 0.131 2.201 0.131 3.619z"></path>
</symbol>
<symbol id="icon-concept" viewBox="0 0 32 32">
<path d="M3.257 27.527c0.543-0.040 1.072-0.192 1.553-0.446s0.905-0.605 1.244-1.030c0.339-0.426 0.587-0.917 0.727-1.443s0.171-1.075 0.089-1.613c-0.553-5.345 4.793-5.898 4.793-5.898l5.899 4.793c0 0 0.276 2.673-3.318 7.097-2.454 3.021-7.917 1.315-11.135-0.071-0.143-0.062-0.263-0.168-0.342-0.303s-0.112-0.291-0.096-0.447c0.017-0.155 0.083-0.301 0.188-0.416s0.245-0.193 0.398-0.223zM29.395 4.564c0.293-0.428 0.413-0.95 0.339-1.463s-0.339-0.979-0.741-1.306-0.913-0.49-1.43-0.459c-0.517 0.032-1.004 0.257-1.362 0.631l-12.498 13.006 5.519 4.485 10.174-14.895z"></path>
</symbol>
<symbol id="icon-design" viewBox="0 0 32 32">
<path d="M4.807 6.908l9.59-5.741c0.551-0.327 1.18-0.5 1.821-0.5s1.27 0.173 1.821 0.5l9.59 5.741c0.245 0.141 0.449 0.344 0.591 0.589s0.216 0.523 0.216 0.806c0 0.283-0.075 0.561-0.216 0.806s-0.346 0.448-0.591 0.589l-9.59 5.741c-0.551 0.327-1.18 0.5-1.821 0.5s-1.27-0.173-1.821-0.5l-9.59-5.741c-0.245-0.141-0.449-0.344-0.591-0.589s-0.216-0.523-0.216-0.806c0-0.283 0.075-0.561 0.216-0.806s0.346-0.448 0.591-0.589zM4.807 17.335l9.59 5.741c0.551 0.327 1.18 0.5 1.821 0.5s1.27-0.173 1.821-0.5l9.59-5.741c0.245-0.141 0.449-0.344 0.591-0.589s0.216-0.523 0.216-0.806c0-0.283-0.075-0.561-0.216-0.806s-0.346-0.448-0.591-0.589l-1.817-1.088-6.595 3.949c-0.906 0.544-1.942 0.831-2.998 0.831s-2.093-0.288-2.998-0.831l-6.595-3.948-1.817 1.088c-0.245 0.141-0.449 0.344-0.59 0.589s-0.216 0.523-0.216 0.806c0 0.283 0.075 0.561 0.216 0.806s0.345 0.448 0.591 0.589zM4.807 24.971l9.59 5.741c0.551 0.327 1.18 0.5 1.821 0.5s1.27-0.173 1.821-0.5l9.59-5.741c0.245-0.141 0.449-0.344 0.591-0.589s0.216-0.523 0.216-0.806c0-0.283-0.075-0.561-0.216-0.806s-0.346-0.448-0.591-0.589l-1.817-1.088-6.595 3.949c-0.906 0.544-1.942 0.831-2.998 0.831s-2.093-0.287-2.998-0.831l-6.595-3.948-1.817 1.088c-0.245 0.141-0.449 0.344-0.59 0.589s-0.216 0.523-0.216 0.805c0 0.283 0.074 0.561 0.216 0.805s0.345 0.448 0.59 0.589z"></path>
</symbol>
<symbol id="icon-dialog" viewBox="0 0 32 32">
<path d="M0 12c0-5.891 5.969-10.667 13.333-10.667s13.333 4.776 13.333 10.667c0 5.891-5.969 10.667-13.333 10.667-1.477 0-2.895-0.2-4.223-0.555l-6.444 3.221v-6.953c-1.667-1.78-2.667-3.984-2.667-6.38zM13.333 25.333c8.512 0 15.472-5.572 15.953-12.567 1.749 1.663 2.713 3.731 2.713 5.9 0 2.149-0.943 4.213-2.667 5.871v6.953l-7.264-3.631c-4.009 0.545-7.911-0.508-10.595-2.623 0.617 0.061 1.239 0.096 1.859 0.096z"></path>
</symbol>
<symbol id="icon-dribble" viewBox="0 0 32 32">
<path d="M16 32c-8.8 0-16-7.2-16-16s7.2-16 16-16c8.8 0 16 7.2 16 16s-7.2 16-16 16zM29.5 18.2c-0.5-0.2-4.2-1.3-8.5-0.6 1.8 4.9 2.5 8.9 2.7 9.7 3-2 5.2-5.3 5.8-9.1zM21.3 28.6c-0.2-1.2-1-5.4-2.9-10.4h-0.1c-7.7 2.7-10.5 8-10.7 8.5 2.3 1.8 5.2 2.9 8.4 2.9 1.9 0.1 3.7-0.3 5.3-1zM5.8 25.2c0.3-0.5 4.1-6.7 11.1-9 0.2-0.1 0.4-0.1 0.5-0.2-0.3-0.8-0.7-1.6-1.1-2.3-6.8 2-13.4 2-14 1.9 0 0.1 0 0.3 0 0.4 0 3.5 1.4 6.7 3.5 9.2zM2.6 13.2c0.6 0 6.2 0 12.6-1.7-2.3-4-4.7-7.4-5.1-7.9-3.7 1.9-6.6 5.4-7.5 9.6zM12.8 2.7c0.4 0.5 2.9 3.9 5.1 8 4.9-1.8 6.9-4.6 7.2-4.9-2.4-2.1-5.6-3.4-9.1-3.4-1.1 0-2.2 0.1-3.2 0.3zM26.6 7.4c-0.3 0.4-2.6 3.3-7.6 5.4 0.3 0.7 0.6 1.3 0.9 2 0.1 0.2 0.2 0.5 0.3 0.7 4.5-0.6 9.1 0.3 9.5 0.4-0.1-3.2-1.2-6.2-3.1-8.5z"></path>
</symbol>
<symbol id="icon-facebook" viewBox="0 0 31 32">
<path d="M15.516 0c-8.569 0-15.516 6.496-15.516 14.509 0 4.558 2.248 8.625 5.764 11.286v5.552l5.295-2.937c1.412 0.395 2.907 0.607 4.456 0.607 8.569 0 15.516-6.496 15.516-14.509s-6.945-14.509-15.515-14.509zM17.15 19.456l-4.012-4.169-7.728 4.274 8.472-8.992 4.013 4.169 7.728-4.274-8.473 8.992z"></path>
</symbol>
<symbol id="icon-instagram" viewBox="0 0 33 32">
<path d="M15.999 2.88c4.266 0 4.777 0.016 6.465 0.093 1.769-0.060 3.493 0.566 4.81 1.748 1.182 1.318 1.808 3.041 1.748 4.81 0.077 1.691 0.096 2.201 0.096 6.468s-0.016 4.777-0.093 6.465c0.060 1.769-0.566 3.493-1.748 4.81-1.317 1.182-3.041 1.809-4.81 1.748-1.687 0.077-2.193 0.093-6.465 0.093s-4.777-0.016-6.465-0.093c-1.769 0.060-3.493-0.566-4.81-1.748-1.182-1.317-1.809-3.041-1.748-4.81-0.080-1.687-0.099-2.193-0.099-6.465s0.016-4.777 0.093-6.465c-0.060-1.769 0.566-3.493 1.748-4.81 1.318-1.183 3.043-1.809 4.814-1.748 1.687-0.077 2.198-0.096 6.465-0.096zM15.999 0c-4.344 0-4.889 0.018-6.597 0.096-2.491-0.045-4.902 0.884-6.72 2.589-1.705 1.817-2.634 4.228-2.589 6.72-0.076 1.706-0.094 2.251-0.094 6.595s0.018 4.889 0.096 6.597c-0.045 2.491 0.884 4.902 2.589 6.72 1.817 1.705 4.228 2.634 6.72 2.589 1.707 0.078 2.253 0.096 6.597 0.096s4.889-0.018 6.597-0.096c2.491 0.045 4.902-0.884 6.72-2.589 1.705-1.817 2.634-4.228 2.589-6.72 0.078-1.706 0.096-2.253 0.096-6.597s-0.018-4.889-0.096-6.597c0.045-2.491-0.884-4.902-2.589-6.72-1.817-1.705-4.228-2.634-6.72-2.589-1.71-0.076-2.255-0.094-6.599-0.094z"></path>
<path d="M15.999 7.786c-1.624 0-3.212 0.482-4.563 1.384s-2.403 2.185-3.025 3.686c-0.622 1.501-0.784 3.152-0.467 4.745s1.099 3.056 2.248 4.205c1.149 1.148 2.612 1.931 4.205 2.248s3.244 0.154 4.745-0.467c1.501-0.622 2.783-1.674 3.686-3.025s1.384-2.938 1.384-4.563c0-2.178-0.865-4.267-2.405-5.807s-3.629-2.405-5.807-2.405zM15.999 21.332c-1.055 0-2.086-0.313-2.963-0.899s-1.561-1.419-1.964-2.393-0.509-2.047-0.303-3.081c0.206-1.034 0.714-1.985 1.46-2.73s1.696-1.254 2.731-1.46c1.034-0.206 2.107-0.1 3.081 0.303s1.807 1.087 2.393 1.964 0.899 1.908 0.899 2.963c0 1.414-0.562 2.771-1.562 3.771s-2.357 1.562-3.771 1.562z"></path>
<path d="M24.539 9.378c1.060 0 1.92-0.86 1.92-1.92s-0.86-1.92-1.92-1.92c-1.060 0-1.92 0.86-1.92 1.92s0.86 1.92 1.92 1.92z"></path>
</symbol>
<symbol id="icon-logo" viewBox="0 0 106 32">
<path fill="#2d04e4" style="fill: var(--color3, #2d04e4)" d="M8.932 8.409v-0.467c0-4.36-3.543-7.942-7.942-7.942v14.092c1.635-2.92 4.555-5.022 7.942-5.684z"></path>
<path fill="#2d04e4" style="fill: var(--color3, #2d04e4)" d="M14.149 23.942c-1.479-0.156-2.92-0.74-4.049-1.713-0.273 0.779-0.467 1.635-0.467 2.569 0 3.971 4.049 6.657 7.63 7.163h4.165c0-4.282-3.114-7.591-7.28-8.020z"></path>
<path fill="#2d04e4" style="fill: var(--color3, #2d04e4)" d="M13.76 32c-3.426-0.584-6.112-3.62-6.112-7.163 0-4.438 3.075-6.968 6.462-7.319 4.204-0.428 7.28-3.737 7.28-8.019h-8.993c-6.19 0-11.367 4.905-11.445 11.095-0.078 6.306 4.983 11.406 11.251 11.406h1.557z"></path>
<path d="M31.784 11.212h3.737v2.92h3.192c0 1.713-1.362 3.075-3.075 3.075h-0.117v5.489c0 0.545 0.156 0.973 0.428 1.246 0.273 0.311 0.662 0.428 1.168 0.428 0.584 0 1.090-0.156 1.518-0.467l1.012 2.608c-0.35 0.273-0.818 0.467-1.362 0.623-0.545 0.117-1.090 0.195-1.674 0.195-1.518 0-2.686-0.389-3.543-1.168-0.818-0.779-1.246-1.907-1.246-3.426v-11.523h-0.039z"></path>
<path d="M43.93 26.511c-1.090-0.545-1.908-1.363-2.53-2.336-0.623-1.012-0.895-2.141-0.895-3.426s0.311-2.414 0.895-3.426c0.623-1.012 1.44-1.791 2.53-2.336s2.297-0.856 3.62-0.856c1.363 0 2.569 0.273 3.62 0.856 1.051 0.545 1.907 1.363 2.491 2.336 0.623 1.012 0.895 2.141 0.895 3.426s-0.311 2.414-0.895 3.426c-0.623 1.012-1.44 1.791-2.491 2.336s-2.258 0.857-3.62 0.857c-1.324-0.039-2.569-0.311-3.62-0.857zM49.925 23.319c0.623-0.662 0.934-1.518 0.934-2.569 0-1.090-0.311-1.947-0.934-2.569-0.623-0.662-1.401-0.973-2.336-0.973s-1.752 0.311-2.375 0.973c-0.623 0.662-0.934 1.518-0.934 2.569 0 1.090 0.311 1.946 0.934 2.569 0.623 0.662 1.401 0.973 2.375 0.973 0.934 0 1.713-0.311 2.336-0.973z"></path>
<path d="M70.597 14.132v10.861c0 2.336-0.623 4.088-1.83 5.255-1.207 1.129-2.998 1.713-5.372 1.713-1.246 0-2.414-0.156-3.542-0.467s-2.024-0.74-2.764-1.324l1.479-2.686c0.545 0.428 1.207 0.817 2.063 1.051 0.818 0.273 1.635 0.389 2.492 0.389 1.285 0 2.219-0.273 2.842-0.857s0.934-1.44 0.934-2.647v-0.467c-0.973 1.051-2.336 1.596-4.049 1.596-1.168 0-2.258-0.273-3.231-0.779s-1.752-1.246-2.336-2.18c-0.584-0.934-0.856-2.024-0.856-3.231s0.273-2.297 0.856-3.231c0.584-0.934 1.362-1.674 2.336-2.18s2.063-0.779 3.231-0.779c1.869 0 3.27 0.623 4.243 1.83v-1.83h3.504v-0.039zM65.965 22.618c0.623-0.584 0.934-1.324 0.934-2.258s-0.311-1.713-0.934-2.258c-0.623-0.584-1.44-0.857-2.414-0.857s-1.791 0.273-2.414 0.857c-0.623 0.584-0.934 1.324-0.934 2.258s0.312 1.713 0.934 2.258c0.623 0.584 1.44 0.856 2.414 0.856s1.791-0.273 2.414-0.856z"></path>
<path d="M73.556 9.46h3.737v17.674h-3.737v-17.674z"></path>
<path d="M90.023 15.572c1.051 0.934 1.596 2.375 1.596 4.282v7.319h-3.465v-1.596c-0.701 1.207-1.985 1.791-3.893 1.791-0.973 0-1.83-0.156-2.569-0.506s-1.285-0.779-1.674-1.401c-0.389-0.584-0.584-1.246-0.584-1.985 0-1.207 0.467-2.141 1.362-2.803 0.895-0.701 2.297-1.012 4.165-1.012h2.959c0-0.817-0.234-1.44-0.74-1.869s-1.246-0.662-2.219-0.662c-0.701 0-1.363 0.117-2.024 0.311-0.662 0.234-1.207 0.506-1.674 0.857l-1.324-2.608c0.701-0.506 1.518-0.856 2.53-1.129 0.973-0.273 1.985-0.389 2.998-0.389 1.947-0.039 3.465 0.428 4.555 1.401zM86.831 24.409c0.506-0.311 0.856-0.74 1.051-1.285v-1.324h-2.569c-1.518 0-2.297 0.506-2.297 1.518 0 0.467 0.195 0.856 0.545 1.129 0.389 0.273 0.895 0.428 1.518 0.428 0.701-0.039 1.246-0.195 1.752-0.467z"></path>
<path d="M95.862 26.939c-1.012-0.273-1.83-0.584-2.414-0.973l1.246-2.686c0.584 0.35 1.246 0.662 2.063 0.895s1.596 0.35 2.375 0.35c1.557 0 2.375-0.389 2.375-1.168 0-0.35-0.234-0.623-0.662-0.779s-1.090-0.311-1.986-0.389c-1.051-0.156-1.907-0.35-2.608-0.545s-1.285-0.584-1.791-1.090-0.74-1.285-0.74-2.258c0-0.817 0.234-1.518 0.701-2.141s1.168-1.129 2.063-1.479c0.895-0.35 1.947-0.506 3.192-0.506 0.895 0 1.791 0.117 2.686 0.311s1.635 0.467 2.219 0.818l-1.246 2.647c-1.129-0.623-2.374-0.934-3.698-0.934-0.779 0-1.401 0.117-1.791 0.35s-0.584 0.506-0.584 0.856c0 0.389 0.234 0.662 0.662 0.818s1.129 0.311 2.063 0.467c1.051 0.195 1.908 0.35 2.57 0.545s1.245 0.545 1.752 1.090c0.506 0.506 0.739 1.246 0.739 2.18 0 0.779-0.233 1.518-0.701 2.102-0.467 0.623-1.167 1.090-2.102 1.44-0.895 0.35-1.985 0.506-3.27 0.506-1.051-0.039-2.102-0.156-3.114-0.428z"></path>
</symbol>
<symbol id="icon-menu" viewBox="0 0 32 32">
<path stroke-linejoin="round" stroke-linecap="round" stroke-miterlimit="10" stroke-width="2" d="M2 10h28"></path>
<path stroke-linejoin="round" stroke-linecap="round" stroke-miterlimit="10" stroke-width="2" d="M2 22h28"></path>
</symbol>
<symbol id="icon-play" viewBox="0 0 32 32">
<path d="M7.207 0.332c-0.601-0.401-1.403-0.401-2.004-0.2-0.802 0.401-1.203 1.002-1.203 1.804v28.060c0 0.802 0.401 1.403 1.002 1.804 0.401 0.2 0.601 0.2 1.002 0.2s0.802-0.2 1.203-0.401l20.043-14.030c0.601-0.401 0.802-1.002 0.802-1.603s-0.401-1.203-0.802-1.603l-20.043-14.030z"></path>
</symbol>
<symbol id="icon-rate" viewBox="0 0 32 32">
<path d="M5.333 14.667h-4c-0.354 0-0.693 0.141-0.943 0.391s-0.391 0.589-0.391 0.943v14.667c0 0.354 0.14 0.693 0.391 0.943s0.589 0.391 0.943 0.391h4v-17.333z"></path>
<path d="M30.052 13.867c-0.501-0.585-1.122-1.055-1.821-1.377s-1.46-0.489-2.231-0.489h-8.667v-6.667c0-2.941-1.059-5.333-4-5.333-0.293-0-0.577 0.096-0.81 0.274s-0.4 0.427-0.477 0.709l-4.047 13.684v17.333h16.568c1.276 0.006 2.511-0.448 3.479-1.279s1.605-1.982 1.793-3.244l1.435-9.333c0.116-0.759 0.067-1.534-0.144-2.272s-0.579-1.422-1.079-2.005z"></path>
</symbol>
</defs>
</svg>
