<svg width="174" height="54" viewBox="0 0 174 54" fill="none" xmlns="http://www.w3.org/2000/svg">
<path d="M0 4.74878H8.8426V11.6791H16.3956C16.3956 15.7449 13.1718 18.979 9.11892 18.979H8.8426V32.008C8.8426 33.3016 9.21102 34.3181 9.85579 34.9649C10.5006 35.7041 11.4217 35.9813 12.6191 35.9813C14.0008 35.9813 15.1982 35.6117 16.2114 34.8725L18.6063 41.0636C17.7773 41.7104 16.672 42.1724 15.3824 42.542C14.0929 42.8192 12.8033 43.004 11.4217 43.004C7.82938 43.004 5.06606 42.08 3.03963 40.2319C1.10531 38.3838 0.092116 35.7041 0.092116 32.1004V4.74878H0Z" fill="#42357E"/>
<path d="M28.7385 41.0634C26.1594 39.7698 24.2251 37.8293 22.7513 35.5192C21.2776 33.1167 20.6328 30.437 20.6328 27.3876C20.6328 24.3383 21.3697 21.6586 22.7513 19.2561C24.2251 16.8536 26.1594 15.0055 28.7385 13.7118C31.3176 12.4182 34.173 11.679 37.3048 11.679C40.5287 11.679 43.3841 12.3258 45.8711 13.7118C48.358 15.0055 50.3845 16.946 51.7661 19.2561C53.2399 21.6586 53.8847 24.3383 53.8847 27.3876C53.8847 30.437 53.1478 33.1167 51.7661 35.5192C50.2924 37.9217 48.358 39.7698 45.8711 41.0634C43.3841 42.3571 40.5287 43.0963 37.3048 43.0963C34.173 43.0039 31.2255 42.3571 28.7385 41.0634ZM42.9235 33.4863C44.3973 31.9154 45.1342 29.8825 45.1342 27.3876C45.1342 24.8003 44.3973 22.7674 42.9235 21.289C41.4498 19.7181 39.6076 18.9789 37.3969 18.9789C35.1863 18.9789 33.2519 19.7181 31.7782 21.289C30.3044 22.8598 29.5675 24.8927 29.5675 27.3876C29.5675 29.9749 30.3044 32.0078 31.7782 33.4863C33.2519 35.0572 35.0942 35.7964 37.3969 35.7964C39.6076 35.7964 41.4498 35.0572 42.9235 33.4863Z" fill="#42357E"/>
<path d="M91.8341 11.679V37.4597C91.8341 43.0039 90.3603 47.1621 87.5049 49.9342C84.6495 52.6139 80.4124 54 74.7937 54C71.8461 54 69.0828 53.6304 66.4116 52.8911C63.7404 52.1519 61.6219 51.1355 59.8718 49.7494L63.372 43.3735C64.6615 44.39 66.2274 45.314 68.2538 45.8684C70.1882 46.5153 72.1225 46.7925 74.1489 46.7925C77.1886 46.7925 79.3992 46.1456 80.873 44.7596C82.3467 43.3735 83.0836 41.3406 83.0836 38.4761V37.3673C80.7808 39.8622 77.557 41.1558 73.5041 41.1558C70.7408 41.1558 68.1617 40.509 65.859 39.3078C63.5562 38.1065 61.714 36.3508 60.3323 34.1331C58.9507 31.9154 58.3059 29.3281 58.3059 26.4636C58.3059 23.5991 58.9507 21.0118 60.3323 18.7941C61.714 16.5764 63.5562 14.8207 65.859 13.6194C68.1617 12.4182 70.7408 11.7714 73.5041 11.7714C77.9254 11.7714 81.2414 13.2498 83.5442 16.1143V11.7714H91.8341V11.679ZM80.873 31.823C82.3467 30.437 83.0836 28.6813 83.0836 26.4636C83.0836 24.2459 82.3467 22.3978 80.873 21.1042C79.3992 19.7181 77.4649 19.0713 75.1621 19.0713C72.8594 19.0713 70.925 19.7181 69.4513 21.1042C67.9775 22.4902 67.2406 24.2459 67.2406 26.4636C67.2406 28.6813 67.9775 30.5294 69.4513 31.823C70.925 33.2091 72.8594 33.8559 75.1621 33.8559C77.4649 33.8559 79.3992 33.2091 80.873 31.823Z" fill="#42357E"/>
<path d="M98.8345 0.590576H107.677V42.542H98.8345V0.590576Z" fill="#42357E"/>
<path d="M137.798 15.098C140.285 17.3157 141.574 20.7346 141.574 25.2624V42.6344H133.376V38.8458C131.718 41.7103 128.679 43.0964 124.165 43.0964C121.863 43.0964 119.836 42.7268 118.086 41.8951C116.336 41.0635 115.046 40.0471 114.125 38.5686C113.204 37.1825 112.744 35.6117 112.744 33.856C112.744 30.9915 113.849 28.7738 115.968 27.2029C118.086 25.5396 121.402 24.8004 125.823 24.8004H132.824C132.824 22.8599 132.271 21.3815 131.074 20.365C129.876 19.3486 128.126 18.7941 125.823 18.7941C124.165 18.7941 122.599 19.0714 121.034 19.5334C119.468 20.0878 118.178 20.7346 117.073 21.5663L113.941 15.3752C115.599 14.1739 117.533 13.3423 119.928 12.6955C122.231 12.0487 124.626 11.7714 127.021 11.7714C131.626 11.679 135.219 12.7879 137.798 15.098ZM130.245 36.0737C131.442 35.3345 132.271 34.318 132.732 33.0244V29.8826H126.652C123.06 29.8826 121.218 31.0839 121.218 33.4864C121.218 34.5952 121.678 35.5193 122.507 36.1661C123.428 36.8129 124.626 37.1825 126.1 37.1825C127.758 37.0901 129.047 36.7205 130.245 36.0737Z" fill="#42357E"/>
<path d="M151.614 42.0796C149.219 41.4328 147.285 40.6936 145.903 39.7695L148.851 33.3937C150.233 34.2253 151.798 34.9645 153.733 35.5189C155.667 36.0734 157.509 36.3506 159.351 36.3506C163.036 36.3506 164.97 35.4265 164.97 33.5785C164.97 32.7468 164.418 32.1 163.404 31.7304C162.391 31.3608 160.825 30.9911 158.707 30.8063C156.22 30.4367 154.193 29.9747 152.535 29.5127C150.877 29.0507 149.496 28.1266 148.298 26.9254C147.101 25.7241 146.548 23.876 146.548 21.5659C146.548 19.6255 147.101 17.9622 148.206 16.4837C149.311 15.0053 150.969 13.804 153.088 12.9724C155.206 12.1407 157.693 11.7711 160.641 11.7711C162.76 11.7711 164.878 12.0483 166.997 12.5104C169.115 12.9724 170.865 13.6192 172.247 14.4508L169.299 20.7343C166.628 19.2558 163.681 18.5166 160.549 18.5166C158.707 18.5166 157.233 18.7938 156.312 19.3482C155.391 19.9027 154.93 20.5495 154.93 21.3811C154.93 22.3052 155.483 22.952 156.496 23.3216C157.509 23.6912 159.167 24.0608 161.378 24.4305C163.865 24.8925 165.891 25.2621 167.457 25.7241C169.023 26.1861 170.405 27.0178 171.602 28.3114C172.8 29.5127 173.352 31.2684 173.352 33.4861C173.352 35.3341 172.8 37.0898 171.694 38.4759C170.589 39.9543 168.931 41.0632 166.72 41.8948C164.602 42.7265 162.023 43.0961 158.983 43.0961C156.496 43.0037 154.009 42.7265 151.614 42.0796Z" fill="#42357E"/>
</svg>
