<svg aria-hidden="true" style="position: absolute; width: 0; height: 0; overflow: hidden;" version="1.1" xmlns="http://www.w3.org/2000/svg" xmlns:xlink="http://www.w3.org/1999/xlink">
<defs>
<symbol id="icon-clients1" viewBox="0 0 64 32">
<path d="M14.569 20.088h1.557v-3.418h3.16v-1.326h-3.16v-2.070h3.939v-1.326h-5.495v8.139z"></path>
<path d="M21.283 20.088h5.625v-1.337h-4.069v-2.174h3.16v-1.326h-3.16v-1.977h3.939v-1.326h-5.495v8.139z"></path>
<path d="M29.94 20.088h1.557v-6.814h2.488v-1.326h-6.545v1.326h2.5v6.814z"></path>
<path d="M38.116 20.181c2.028 0 3.538-1.151 3.703-2.837h-1.557c-0.141 0.884-1.014 1.5-2.146 1.5-1.439 0-2.524-0.977-2.524-2.825s1.085-2.837 2.524-2.837c1.108 0 1.981 0.616 2.099 1.512h1.627c-0.224-1.686-1.733-2.837-3.726-2.837-2.158 0-4.092 1.395-4.092 4.163s1.899 4.163 4.092 4.163z"></path>
<path d="M48.182 11.949v3.302h-3.679v-3.302h-1.557v8.139h1.557v-3.5h3.679v3.5h1.557v-8.139h-1.557z"></path>
<path d="M51.354 18.576v1.512h1.568v-1.512h-1.568z"></path>
<path d="M60.027 20.088h1.616l-3.184-8.139h-1.462l-3.172 8.139h1.604l0.708-1.895h3.184l0.708 1.895zM56.63 16.89l1.108-2.977 1.108 2.977h-2.217z"></path>
<path d="M62.432 20.088h1.568v-8.139h-1.568v8.139z"></path>
<path d="M0 11.856h1.6v1.92h-1.6v-1.92z"></path>
<path d="M0 14.416h1.6v1.92h-1.6v-1.92z"></path>
<path d="M0 17.296h1.6v1.6h-1.6v-1.6z"></path>
<path d="M2.56 11.856h1.92v1.92h-1.92v-1.92z"></path>
<path d="M2.56 17.296h1.92v1.6h-1.92v-1.6z"></path>
<path d="M5.12 11.856h1.92v1.92h-1.92v-1.92z"></path>
<path d="M5.12 14.416h1.92v1.92h-1.92v-1.92z"></path>
<path d="M5.12 17.296h1.92v1.6h-1.92v-1.6z"></path>
</symbol>
<symbol id="icon-clients3" viewBox="0 0 64 32">
<path d="M2.169 11.684l1.204 5.214 0.259 1.452 0.265-1.421 1.025-5.245h2.007l1.081 5.214 0.278 1.452 0.278-1.396 1.216-5.27h1.933l-2.562 9.106h-1.815l-1.099-5.325-0.321-1.761-0.321 1.761-1.099 5.325h-1.766l-2.581-9.106h2.019z"></path>
<path d="M15.969 17.516c-0.111 0.070-0.224 0.128-0.34 0.173-0.111 0.041-0.265 0.080-0.463 0.117l-0.395 0.074c-0.37 0.066-0.636 0.146-0.796 0.241-0.272 0.161-0.408 0.41-0.408 0.747 0 0.301 0.082 0.519 0.247 0.655 0.169 0.132 0.373 0.198 0.611 0.198 0.379 0 0.727-0.111 1.043-0.334 0.321-0.222 0.488-0.628 0.5-1.217v-0.655zM14.901 16.694c0.325-0.041 0.558-0.093 0.698-0.154 0.251-0.107 0.377-0.274 0.377-0.5 0-0.276-0.097-0.465-0.29-0.568-0.189-0.107-0.469-0.161-0.84-0.161-0.416 0-0.71 0.103-0.883 0.309-0.123 0.152-0.206 0.358-0.247 0.618h-1.698c0.037-0.589 0.202-1.073 0.494-1.452 0.465-0.593 1.264-0.89 2.396-0.89 0.737 0 1.391 0.146 1.963 0.439s0.858 0.844 0.858 1.656v3.089c0 0.214 0.004 0.474 0.012 0.778 0.012 0.231 0.047 0.387 0.105 0.47s0.144 0.15 0.259 0.204v0.259h-1.914c-0.053-0.136-0.091-0.264-0.111-0.383s-0.037-0.255-0.049-0.408c-0.243 0.264-0.523 0.488-0.84 0.673-0.379 0.218-0.807 0.327-1.284 0.327-0.609 0-1.113-0.173-1.513-0.519-0.395-0.35-0.593-0.844-0.593-1.483 0-0.828 0.319-1.427 0.957-1.798 0.35-0.202 0.864-0.346 1.544-0.432l0.599-0.074z"></path>
<path d="M21.106 13.253h-1.784v-1.625h1.784v1.625zM19.322 14.057h1.784v6.734h-1.784v-6.734z"></path>
<path d="M22.125 15.372v-1.254h0.939v-1.878h1.741v1.878h1.093v1.254h-1.093v3.558c0 0.276 0.035 0.449 0.105 0.519 0.070 0.066 0.284 0.099 0.642 0.099 0.054 0 0.109 0 0.167 0 0.062-0.004 0.121-0.008 0.179-0.012v1.316l-0.834 0.031c-0.831 0.029-1.4-0.115-1.704-0.432-0.198-0.202-0.296-0.513-0.296-0.933v-4.145h-0.939z"></path>
<path d="M29.682 15.329c-0.408 0-0.724 0.128-0.951 0.383-0.222 0.255-0.362 0.601-0.42 1.038h2.735c-0.029-0.465-0.171-0.818-0.426-1.056-0.251-0.243-0.564-0.364-0.939-0.364zM29.682 13.877c0.56 0 1.064 0.105 1.513 0.315s0.819 0.542 1.111 0.995c0.263 0.399 0.434 0.863 0.512 1.39 0.045 0.309 0.064 0.754 0.056 1.334h-4.606c0.025 0.675 0.237 1.149 0.636 1.421 0.243 0.169 0.535 0.253 0.877 0.253 0.362 0 0.657-0.103 0.883-0.309 0.123-0.111 0.233-0.266 0.327-0.463h1.797c-0.045 0.399-0.253 0.805-0.624 1.217-0.576 0.655-1.383 0.982-2.42 0.982-0.856 0-1.612-0.276-2.266-0.828s-0.982-1.45-0.982-2.693c0-1.166 0.294-2.059 0.883-2.681 0.593-0.622 1.36-0.933 2.303-0.933z"></path>
<path d="M37.722 13.896c0.033 0 0.060 0.002 0.080 0.006 0.025 0 0.076 0.002 0.154 0.006v1.804c-0.111-0.012-0.21-0.021-0.296-0.025s-0.156-0.006-0.21-0.006c-0.708 0-1.183 0.231-1.426 0.692-0.136 0.259-0.204 0.659-0.204 1.198v3.219h-1.772v-6.734h1.679v1.174c0.272-0.449 0.508-0.756 0.71-0.92 0.329-0.276 0.757-0.414 1.284-0.414z"></path>
<path d="M41.624 17.349h2.309l-1.136-3.583-1.173 3.583zM41.741 11.684h2.149l3.223 9.106h-2.062l-0.587-1.872h-3.353l-0.63 1.872h-1.988l3.248-9.106z"></path>
<path d="M49.941 13.253h-1.784v-1.625h1.784v1.625zM48.156 14.057h1.784v6.734h-1.784v-6.734z"></path>
<path d="M54.133 13.896c0.408 0 0.77 0.091 1.087 0.272 0.317 0.177 0.574 0.424 0.772 0.741v-3.212h1.784v9.093h-1.71v-0.933c-0.251 0.399-0.537 0.69-0.858 0.871s-0.72 0.272-1.198 0.272c-0.786 0-1.449-0.317-1.988-0.951-0.535-0.638-0.803-1.456-0.803-2.453 0-1.149 0.263-2.053 0.79-2.712 0.531-0.659 1.239-0.988 2.124-0.988zM54.516 19.518c0.498 0 0.877-0.185 1.136-0.556s0.389-0.85 0.389-1.439c0-0.824-0.208-1.413-0.624-1.767-0.255-0.214-0.552-0.321-0.889-0.321-0.515 0-0.893 0.196-1.136 0.587-0.239 0.387-0.358 0.869-0.358 1.446 0 0.622 0.121 1.12 0.364 1.495 0.247 0.371 0.62 0.556 1.118 0.556z"></path>
<path d="M61.529 11.793v0.403h-0.681v1.873h-0.478v-1.873h-0.684v-0.403h1.843z"></path>
<path d="M63.316 11.793h0.684v2.276h-0.443v-1.54c0-0.044 0-0.106 0.001-0.185 0.001-0.080 0.002-0.142 0.002-0.185l-0.431 1.91h-0.461l-0.428-1.91c0 0.043 0.001 0.105 0.002 0.185 0.001 0.079 0.002 0.141 0.002 0.185v1.54h-0.443v-2.276h0.692l0.414 1.79 0.411-1.79z"></path>
</symbol>
<symbol id="icon-clients4" viewBox="0 0 64 32">
<path d="M33.614 9.937l-1.613-3.273-1.613 3.273 1.613 3.273 1.613-3.273z"></path>
<path d="M30.388 3.394l-1.613-3.273-1.613 3.273 1.613 3.271 1.613-3.271z"></path>
<path opacity="0.5" d="M36.841 3.394l-3.227 6.543-1.613-3.273 1.613-3.271h3.227z"></path>
<path d="M16.955 31.743c-0.195-0.107-0.348-0.255-0.459-0.442-0.11-0.189-0.167-0.4-0.167-0.638s0.056-0.448 0.169-0.638c0.112-0.187 0.266-0.335 0.461-0.442s0.413-0.161 0.655-0.161c0.197 0 0.376 0.035 0.536 0.104 0.162 0.070 0.298 0.168 0.411 0.3l-0.288 0.272c-0.173-0.187-0.387-0.283-0.64-0.283-0.164 0-0.311 0.037-0.441 0.109s-0.231 0.172-0.305 0.3-0.11 0.274-0.11 0.437c0 0.163 0.037 0.309 0.11 0.437s0.175 0.228 0.305 0.3c0.13 0.072 0.277 0.109 0.441 0.109 0.253 0 0.467-0.096 0.64-0.285l0.288 0.276c-0.112 0.131-0.249 0.231-0.413 0.3-0.162 0.070-0.344 0.104-0.539 0.104-0.242-0.002-0.461-0.057-0.655-0.163z"></path>
<path d="M23.229 31.312h-1.198l-0.236 0.557h-0.459l1.077-2.411h0.439l1.081 2.411h-0.465l-0.24-0.557zM23.082 30.959l-0.452-1.053-0.448 1.053h0.9z"></path>
<path d="M28.504 29.562c0.154 0.070 0.273 0.168 0.355 0.296s0.123 0.281 0.123 0.457c0 0.174-0.041 0.326-0.123 0.457s-0.201 0.228-0.355 0.298c-0.154 0.070-0.335 0.102-0.543 0.102h-0.541v0.696h-0.446v-2.411h0.986c0.208 0 0.389 0.035 0.543 0.104zM28.383 30.67c0.099-0.083 0.151-0.2 0.151-0.355s-0.050-0.272-0.151-0.355c-0.099-0.083-0.247-0.124-0.441-0.124h-0.521v0.957h0.521c0.195 0 0.342-0.041 0.441-0.124z"></path>
<path d="M32.165 29.458h0.445v2.411h-0.445v-2.411z"></path>
<path d="M36.48 29.839h-0.794v-0.379h2.033v0.379h-0.794v2.032h-0.446v-2.032z"></path>
<path d="M42.227 31.312h-1.198l-0.236 0.557h-0.459l1.077-2.411h0.439l1.081 2.411h-0.465l-0.24-0.557zM42.079 30.959l-0.452-1.053-0.448 1.053h0.9z"></path>
<path d="M45.975 29.458h0.445v2.032h1.252v0.379h-1.698v-2.411z"></path>
<path d="M10.763 18.795c0 0 0 0.061 0 0.111-0.376 0-0.755 0.444-1.019 0.879h-0.123c0.071-0.607-0.231-0.879-0.363-0.879 0-0.050 0-0.111 0-0.111h1.505z"></path>
<path d="M8.306 23.201l-1.36-3.586c-0.13-0.344 0.121-0.712 0.487-0.712v-0.111h-2.632v0.111c0.398 0 0.755 0.248 0.898 0.622l1.938 5.124h0.229l0.502-1.301-0.061-0.148z"></path>
<path d="M33.396 18.795c0 0 0 0.061 0 0.111-0.376 0-0.755 0.444-1.019 0.879h-0.123c0.071-0.607-0.231-0.879-0.363-0.879 0-0.050 0-0.111 0-0.111h1.505z"></path>
<path d="M30.939 23.202l-1.36-3.584c-0.13-0.344 0.121-0.712 0.487-0.712v-0.111h-2.63v0.111c0.398 0 0.755 0.248 0.898 0.622l1.938 5.125h0.229l0.502-1.301-0.063-0.15z"></path>
<path d="M17.186 20.384c-0.171-0.361-0.394-0.67-0.668-0.925-0.275-0.252-0.593-0.448-0.947-0.585-0.089-0.035-0.177-0.065-0.266-0.089l-0.061 0.122c0.063 0.028 0.123 0.061 0.177 0.098 0.223 0.15 0.389 0.352 0.5 0.609s0.177 0.553 0.201 0.888c0.022 0.335 0.035 0.688 0.035 1.058 0 0.413-0.013 0.794-0.043 1.145-0.028 0.35-0.099 0.655-0.21 0.912s-0.275 0.457-0.495 0.603c-0.028 0.020-0.058 0.037-0.091 0.054l0.063 0.131c0.078-0.026 0.158-0.054 0.236-0.089 0.355-0.157 0.668-0.368 0.939-0.64 0.27-0.268 0.487-0.581 0.645-0.938 0.16-0.357 0.242-0.733 0.242-1.129 0.002-0.453-0.084-0.862-0.255-1.223zM13.109 19.579c0.115-0.252 0.283-0.45 0.504-0.59 0.043-0.028 0.089-0.054 0.138-0.074l-0.058-0.12c-0.078 0.022-0.154 0.050-0.231 0.081-0.352 0.139-0.668 0.339-0.954 0.598-0.283 0.259-0.515 0.57-0.696 0.936s-0.273 0.77-0.273 1.221c0 0.411 0.080 0.796 0.244 1.149 0.162 0.355 0.379 0.662 0.649 0.923s0.586 0.468 0.941 0.618c0.078 0.033 0.154 0.061 0.231 0.087l0.063-0.128c-0.184-0.087-0.335-0.226-0.454-0.418-0.134-0.213-0.234-0.5-0.296-0.862-0.061-0.361-0.095-0.818-0.095-1.367 0-0.418 0.019-0.801 0.054-1.151 0.043-0.348 0.117-0.648 0.234-0.903z"></path>
<path d="M51.94 20.384c-0.171-0.361-0.394-0.67-0.668-0.925-0.275-0.252-0.593-0.448-0.948-0.585-0.089-0.035-0.177-0.065-0.266-0.089l-0.060 0.122c0.063 0.028 0.123 0.061 0.177 0.098 0.223 0.15 0.389 0.352 0.5 0.609s0.178 0.553 0.201 0.888c0.021 0.335 0.035 0.688 0.035 1.058 0 0.413-0.013 0.794-0.043 1.145-0.028 0.35-0.1 0.655-0.21 0.912s-0.275 0.457-0.495 0.603c-0.028 0.020-0.059 0.037-0.091 0.054l0.063 0.131c0.078-0.026 0.158-0.054 0.236-0.089 0.355-0.157 0.668-0.368 0.939-0.64 0.27-0.268 0.486-0.581 0.644-0.938 0.16-0.357 0.242-0.733 0.242-1.129 0-0.453-0.084-0.862-0.255-1.223zM47.863 19.579c0.115-0.252 0.283-0.45 0.504-0.59 0.043-0.028 0.089-0.054 0.138-0.074l-0.058-0.12c-0.078 0.022-0.154 0.050-0.231 0.081-0.353 0.139-0.668 0.339-0.954 0.598-0.283 0.259-0.515 0.57-0.696 0.936s-0.273 0.77-0.273 1.221c0 0.411 0.080 0.796 0.244 1.149 0.162 0.355 0.379 0.662 0.649 0.923s0.586 0.468 0.941 0.618c0.078 0.033 0.153 0.061 0.231 0.087l0.063-0.128c-0.184-0.087-0.335-0.226-0.454-0.418-0.134-0.213-0.233-0.5-0.296-0.862-0.061-0.361-0.095-0.818-0.095-1.367 0-0.418 0.020-0.801 0.054-1.151 0.041-0.348 0.117-0.648 0.234-0.903z"></path>
<path d="M23.757 18.795c0 0 0 0.061 0 0.111-0.376 0-0.839 0.376-1.164 0.879h-0.123c0.391-0.644 0.048-0.879-0.138-0.879 0-0.050 0-0.111 0-0.111h1.425z"></path>
<path d="M18.557 24.438c0 0 0-0.061 0-0.111 0.376 0 0.839-0.376 1.164-0.879h0.123c-0.391 0.644-0.048 0.879 0.138 0.879 0 0.050 0 0.111 0 0.111h-1.425z"></path>
<path d="M23.35 23.763l-2.58-4.302c-0.147-0.244 0.028-0.557 0.311-0.557v-0.111h-2.639v0.111c0.391 0 0.755 0.205 0.956 0.542l2.578 4.276c0.16 0.265-0.030 0.603-0.337 0.603v0.111h2.701v-0.111c-0.404 0.002-0.781-0.211-0.991-0.561z"></path>
<path d="M42.797 24.327c-0.4 0-0.724-0.326-0.724-0.729v-3.963c0-0.403 0.324-0.729 0.724-0.729v-0.111h-2.591v0.111c0.4 0 0.724 0.326 0.724 0.729v3.963c0 0.403-0.324 0.729-0.724 0.729v0.111h2.591v-0.111z"></path>
<path d="M45.099 22.647c-0.069 0.307-0.164 0.566-0.288 0.781-0.124 0.213-0.262 0.387-0.418 0.522s-0.32 0.231-0.495 0.289c-0.175 0.059-0.35 0.087-0.523 0.087v0.111h1.828v-1.791h-0.104z"></path>
<path d="M55.054 18.796c0 0-0.456 0-0.677 0h-1.189v0.111c0.4 0 0.724 0.326 0.724 0.729v3.963c0 0.403-0.324 0.729-0.724 0.729v0.111h2.252v-0.111c-0.212 0-0.385-0.174-0.385-0.387v-5.144z"></path>
<path d="M33.063 24.438c0 0 0-0.061 0-0.111 0.376 0 0.755-0.444 1.019-0.879h0.124c-0.071 0.607 0.231 0.879 0.363 0.879 0 0.050 0 0.111 0 0.111h-1.505z"></path>
<path d="M38.511 23.7l-2.21-5.127h-0.212l-0.491 1.206 0.067 0.15 1.592 3.721c0.136 0.32-0.097 0.677-0.443 0.677v0.111h2.647v-0.111c-0.413 0-0.785-0.246-0.949-0.627z"></path>
<path d="M59.2 24.183c-0.054 0.054-0.104 0.102-0.154 0.146-0.050 0.046-0.108 0.083-0.173 0.115-0.067 0.030-0.145 0.057-0.242 0.074-0.095 0.020-0.212 0.028-0.355 0.028-0.29 0-0.515-0.046-0.677-0.139s-0.283-0.207-0.361-0.344c-0.078-0.137-0.128-0.287-0.147-0.448-0.017-0.161-0.028-0.313-0.035-0.457-0.011-0.218-0.026-0.427-0.045-0.631-0.017-0.202-0.060-0.383-0.13-0.542-0.067-0.159-0.169-0.285-0.307-0.381-0.082-0.057-0.184-0.098-0.307-0.12v-0.192c0.035-0.013 0.067-0.024 0.095-0.037 0.134-0.063 0.238-0.148 0.307-0.257s0.11-0.233 0.13-0.368c0.020-0.137 0.028-0.276 0.028-0.42 0-0.233-0.015-0.433-0.045-0.598-0.033-0.165-0.084-0.302-0.158-0.411s-0.175-0.189-0.305-0.244c-0.127-0.052-0.292-0.078-0.491-0.078v-0.104c0.095-0.002 0.186-0.004 0.284-0.004 0.205 0 0.421 0.020 0.651 0.063 0.229 0.041 0.439 0.113 0.627 0.218 0.19 0.102 0.346 0.244 0.469 0.416s0.184 0.394 0.184 0.657c0 0.211-0.048 0.392-0.143 0.542-0.095 0.152-0.216 0.274-0.365 0.368-0.149 0.096-0.316 0.17-0.5 0.218s-0.365 0.083-0.545 0.1v0.039c0.258 0.046 0.487 0.096 0.69 0.141 0.201 0.048 0.376 0.12 0.524 0.215s0.264 0.226 0.35 0.396c0.086 0.17 0.14 0.396 0.16 0.681 0.028 0.333 0.048 0.598 0.063 0.801 0.015 0.2 0.037 0.357 0.067 0.466 0.028 0.111 0.069 0.185 0.119 0.222 0.052 0.037 0.123 0.054 0.216 0.054 0.104 0 0.193-0.028 0.26-0.091 0.069-0.061 0.128-0.117 0.182-0.17l0.080 0.076z"></path>
</symbol>
<symbol id="icon-clients6" viewBox="0 0 63 32">
<path d="M24.003 25.886v3.551l2.458-1.2v-3.551l-2.458 1.2z"></path>
<path d="M36.742 3.647v-3.558l-15.197 7.464v19.537l2.458-1.204v-15.986l12.739-6.253z"></path>
<path d="M39.203 5.995v-3.555l-2.461 1.207v3.555l2.461-1.207z"></path>
<path d="M39.203 5.995v9.443l-8.002 3.98v6.501l-4.74 2.319v3.551l7.198-3.519v-6.504l8.002-3.98v-12.998l-2.458 1.207z"></path>
<path opacity="0.5" d="M26.461 24.686l2.279-1.115v-6.501l8.002-3.98v-5.888l-10.28 5.045v12.438z"></path>
</symbol>
<symbol id="icon-clients7" viewBox="0 0 64 32">
<path d="M24.377 17.279v1.287h-0.779c-0.7 0-1.042-0.303-1.028-0.908-0.202 0.317-0.451 0.559-0.747 0.724s-0.653 0.249-1.071 0.249c-0.62 0-1.122-0.141-1.504-0.422-0.375-0.288-0.563-0.692-0.563-1.211 0-0.591 0.216-1.045 0.649-1.363 0.44-0.324 1.075-0.487 1.904-0.487h1.104v-0.27c0-0.252-0.094-0.451-0.281-0.595-0.188-0.151-0.44-0.227-0.757-0.227-0.281 0-0.512 0.061-0.692 0.184s-0.288 0.288-0.325 0.497h-1.471c0.050-0.57 0.303-1.009 0.757-1.319 0.454-0.317 1.057-0.476 1.807-0.476 0.786 0 1.392 0.173 1.818 0.519 0.433 0.346 0.649 0.847 0.649 1.503v1.957c0 0.137 0.029 0.231 0.087 0.281s0.148 0.076 0.27 0.076h0.173zM22.343 16.165h-1.114c-0.317 0-0.566 0.065-0.746 0.195-0.173 0.123-0.26 0.299-0.26 0.53 0 0.195 0.072 0.35 0.216 0.465 0.151 0.115 0.353 0.173 0.606 0.173 0.397 0 0.71-0.112 0.941-0.335 0.231-0.231 0.35-0.537 0.357-0.919v-0.108z"></path>
<path d="M30.528 13.007v5.396c0 0.728-0.242 1.308-0.725 1.741s-1.233 0.649-2.25 0.649c-0.786 0-1.421-0.173-1.904-0.519s-0.743-0.836-0.779-1.471h1.536c0.072 0.267 0.213 0.472 0.422 0.616 0.216 0.144 0.498 0.216 0.844 0.216 0.433 0 0.768-0.108 1.006-0.324s0.357-0.537 0.357-0.962v-0.584c-0.404 0.512-0.977 0.768-1.72 0.768-0.49 0-0.93-0.115-1.32-0.346s-0.696-0.555-0.92-0.973c-0.216-0.425-0.325-0.919-0.325-1.482 0-0.555 0.108-1.045 0.325-1.471 0.224-0.425 0.53-0.753 0.92-0.984 0.397-0.231 0.84-0.346 1.331-0.346 0.728 0 1.305 0.281 1.731 0.843l0.13-0.768h1.341zM27.672 17.311c0.411 0 0.739-0.144 0.985-0.433s0.368-0.663 0.368-1.125c0-0.469-0.123-0.851-0.368-1.146s-0.573-0.443-0.985-0.443-0.743 0.148-0.995 0.443c-0.245 0.288-0.368 0.667-0.368 1.135s0.123 0.847 0.368 1.135c0.252 0.288 0.584 0.433 0.995 0.433z"></path>
<path d="M31.375 15.797c0-0.577 0.115-1.078 0.346-1.503 0.238-0.433 0.566-0.764 0.985-0.995 0.426-0.238 0.916-0.357 1.471-0.357 0.563 0 1.057 0.112 1.482 0.335 0.433 0.216 0.768 0.526 1.006 0.93 0.245 0.396 0.372 0.865 0.379 1.406 0 0.195-0.014 0.368-0.043 0.519h-4.036v0.043c0.036 0.404 0.166 0.721 0.389 0.952s0.53 0.346 0.92 0.346c0.31 0 0.566-0.065 0.768-0.195 0.209-0.137 0.346-0.335 0.411-0.595h1.504c-0.058 0.368-0.198 0.699-0.422 0.995s-0.519 0.53-0.887 0.703c-0.368 0.166-0.79 0.249-1.266 0.249-0.62 0-1.157-0.115-1.612-0.346-0.447-0.231-0.793-0.559-1.039-0.984-0.238-0.433-0.357-0.934-0.357-1.503zM35.518 15.137c-0.051-0.339-0.191-0.598-0.422-0.779-0.224-0.187-0.508-0.281-0.855-0.281-0.332 0-0.613 0.097-0.844 0.292-0.224 0.187-0.357 0.443-0.4 0.768h2.521z"></path>
<path d="M41.069 12.942c0.649 0 1.183 0.202 1.601 0.606s0.628 1.071 0.628 2.001v3.017h-1.525v-2.931c0-0.959-0.375-1.438-1.125-1.438-0.397 0-0.703 0.133-0.92 0.4s-0.324 0.642-0.324 1.125v2.844h-1.525v-5.558h1.331l0.14 0.692c0.195-0.238 0.429-0.422 0.703-0.552 0.274-0.137 0.613-0.205 1.017-0.205z"></path>
<path d="M44.616 14.294h-0.92v-1.287h0.92v-1.557h1.525v1.557h1.266v1.287h-1.266v2.433c0 0.195 0.040 0.335 0.119 0.422 0.087 0.087 0.227 0.13 0.422 0.13h0.79v1.287h-1.266c-1.060 0-1.59-0.53-1.59-1.59v-2.682z"></path>
<path d="M47.814 15.797c0-0.577 0.116-1.078 0.346-1.503 0.238-0.433 0.566-0.764 0.985-0.995 0.426-0.238 0.916-0.357 1.471-0.357 0.563 0 1.057 0.112 1.482 0.335 0.433 0.216 0.768 0.526 1.006 0.93 0.245 0.396 0.372 0.865 0.379 1.406 0 0.195-0.014 0.368-0.043 0.519h-4.036v0.043c0.036 0.404 0.166 0.721 0.389 0.952s0.53 0.346 0.92 0.346c0.31 0 0.566-0.065 0.768-0.195 0.209-0.137 0.346-0.335 0.411-0.595h1.504c-0.058 0.368-0.198 0.699-0.422 0.995s-0.519 0.53-0.887 0.703c-0.368 0.166-0.79 0.249-1.266 0.249-0.62 0-1.157-0.115-1.612-0.346-0.447-0.231-0.794-0.559-1.039-0.984-0.238-0.433-0.357-0.934-0.357-1.503zM51.958 15.137c-0.051-0.339-0.191-0.598-0.422-0.779-0.224-0.187-0.508-0.281-0.855-0.281-0.332 0-0.613 0.097-0.844 0.292-0.224 0.187-0.357 0.443-0.4 0.768h2.521z"></path>
<path d="M59.553 13.007v5.558h-1.353l-0.14-0.67c-0.195 0.231-0.422 0.411-0.682 0.541s-0.577 0.195-0.952 0.195c-0.649 0-1.179-0.198-1.59-0.595-0.411-0.404-0.617-1.074-0.617-2.011v-3.017h1.525v2.833c0 0.505 0.086 0.887 0.26 1.146 0.18 0.252 0.454 0.378 0.822 0.378 0.382 0 0.678-0.141 0.887-0.422 0.209-0.288 0.314-0.688 0.314-1.2v-2.736h1.525z"></path>
<path d="M64 13.007v1.384h-0.606c-0.433 0-0.75 0.13-0.952 0.389s-0.303 0.613-0.303 1.060v2.725h-1.525v-5.558h1.385l0.141 0.833c0.166-0.274 0.372-0.479 0.617-0.616 0.245-0.144 0.573-0.216 0.984-0.216h0.26z"></path>
<path d="M0 10.516h11.212v2.803h-11.212v-2.803z"></path>
<path d="M0 16.122h11.212v2.803h-11.212v-2.803z"></path>
<path d="M8.409 21.727v-11.212h2.803v11.212h-2.803z"></path>
<path d="M11.212 10.516v-2.803h2.803v2.803h-2.803z"></path>
<path d="M0 21.727v-5.606h2.803v5.606h-2.803z"></path>
</symbol>
<symbol id="icon-clients8" viewBox="0 0 64 32">
<path opacity="0.5" d="M6.963 22.071h-6.566c-0.225 0-0.396-0.172-0.396-0.396v-0.159c0-0.225 0.185-0.396 0.396-0.396h6.566c0.225 0 0.396 0.172 0.396 0.396v0.159c0 0.211-0.172 0.396-0.396 0.396zM8.575 22.071h6.566c0.225 0 0.396-0.185 0.396-0.396v-0.159c0-0.225-0.172-0.396-0.396-0.396h-6.566c-0.225 0-0.396 0.172-0.396 0.396v0.159c0 0.225 0.185 0.396 0.396 0.396zM23.425 22.071h-6.566c-0.225 0-0.396-0.172-0.396-0.396v-0.159c0-0.225 0.172-0.396 0.396-0.396h6.566c0.225 0 0.396 0.172 0.396 0.396v0.159c0 0.211-0.172 0.396-0.396 0.396zM25.116 22.071h6.566c0.211 0 0.396-0.185 0.396-0.396v-0.159c0-0.225-0.185-0.396-0.396-0.396h-6.566c-0.225 0-0.396 0.172-0.396 0.396v0.159c0 0.225 0.172 0.396 0.396 0.396zM33.374 22.071h6.566c0.225 0 0.396-0.185 0.396-0.396v-0.159c0-0.225-0.172-0.396-0.396-0.396h-6.566c-0.225 0-0.396 0.172-0.396 0.396v0.159c0 0.225 0.172 0.396 0.396 0.396z"></path>
<path d="M0 19.323v-0.912h4.241c0.806 0 1.216-0.502 1.216-1.506s-0.41-1.506-1.216-1.506h-1.81c-1.612 0-2.418-0.806-2.418-2.418 0-1.81 0.806-2.722 2.418-2.722h3.937v0.912h-3.937c-1.004 0-1.506 0.608-1.506 1.81 0 1.004 0.502 1.506 1.506 1.506h1.81c1.414 0 2.114 0.806 2.114 2.418s-0.7 2.418-2.114 2.418h-4.241z"></path>
<path d="M9.077 17.209c0 0.806 0.41 1.216 1.216 1.216h0.608v0.912h-0.608c-1.414 0-2.114-0.7-2.114-2.114v-3.343h-0.912v-0.912h0.912v-1.506h0.912v1.506h1.506v0.912h-1.519v3.329z"></path>
<path d="M11.798 15.095c0-1.414 0.7-2.114 2.114-2.114h2.114c1.414 0 2.114 0.7 2.114 2.114v2.114c0 1.414-0.7 2.114-2.114 2.114h-2.114c-1.414 0-2.114-0.7-2.114-2.114v-2.114zM13.926 13.879c-0.806 0-1.216 0.41-1.216 1.216v2.114c0 0.806 0.41 1.216 1.216 1.216h2.114c0.806 0 1.216-0.41 1.216-1.216v-2.114c0-0.806-0.41-1.216-1.216-1.216h-2.114z"></path>
<path d="M22.091 12.968h2.418v0.912h-2.418c-1.414 0-2.114 0.7-2.114 2.114v3.329h-0.912v-3.329c0-2.008 1.004-3.026 3.026-3.026z"></path>
<path d="M25.869 12.215c-0.41 0-0.608-0.198-0.608-0.608s0.198-0.608 0.608-0.608c0.41 0 0.608 0.198 0.608 0.608s-0.198 0.608-0.608 0.608zM25.42 19.323v-6.355h0.912v6.355h-0.912z"></path>
<path d="M31.313 18.424c0.806 0 1.216-0.41 1.216-1.216h0.911c0 1.414-0.7 2.114-2.114 2.114h-2.114c-1.414 0-2.114-0.7-2.114-2.114v-2.114c0-1.414 0.7-2.114 2.114-2.114h2.114c1.414 0 2.114 0.608 2.114 1.81 0 0.885-0.304 1.387-0.925 1.506l-4.518 1.031c0.040 0.727 0.436 1.083 1.202 1.083h2.114v0.013zM29.199 13.879c-0.806 0-1.216 0.41-1.216 1.216v1.295l4.294-0.991c0.172-0.053 0.251-0.159 0.251-0.317 0-0.806-0.41-1.216-1.216-1.216h-2.114v0.013z"></path>
<path d="M34.048 19.323v-0.912h4.532c0.608 0 0.911-0.304 0.911-0.912s-0.304-0.912-0.911-0.912h-2.722c-1.215 0-1.81-0.608-1.81-1.81s0.608-1.81 1.81-1.81h4.532v0.912h-4.532c-0.608 0-0.912 0.304-0.912 0.912s0.304 0.912 0.912 0.912h2.722c1.215 0 1.81 0.608 1.81 1.81s-0.608 1.81-1.81 1.81h-4.532z"></path>
<path d="M41.301 15.095c0-1.414 0.7-2.114 2.114-2.114h2.114c1.414 0 2.114 0.7 2.114 2.114v4.836c0 1.414-0.7 2.114-2.114 2.114h-4.228v-0.912h4.241c0.806 0 1.216-0.41 1.216-1.216v-0.608h-3.343c-1.414 0-2.114-0.7-2.114-2.114v-2.101zM43.415 13.879c-0.806 0-1.216 0.41-1.216 1.216v2.114c0 0.806 0.41 1.216 1.216 1.216h3.33v-3.329c0-0.806-0.41-1.216-1.216-1.216h-2.114z"></path>
<path d="M50.682 13.879c-0.806 0-1.215 0.41-1.215 1.216h-0.899c0-1.414 0.7-2.114 2.114-2.114h2.114c1.413 0 2.114 0.7 2.114 2.114v2.114c0 1.414-0.7 2.114-2.114 2.114h-2.114c-1.413 0-2.114-0.608-2.114-1.81 0-0.885 0.304-1.387 0.925-1.506l4.518-1.031c-0.040-0.727-0.436-1.083-1.202-1.083h-2.127v-0.013zM52.796 18.424c0.806 0 1.215-0.41 1.215-1.216v-1.295l-4.294 0.991c-0.172 0.053-0.251 0.159-0.251 0.317 0 0.806 0.41 1.216 1.215 1.216h2.114v-0.013z"></path>
<path d="M56.284 12.215c-0.41 0-0.608-0.198-0.608-0.608s0.198-0.608 0.608-0.608c0.409 0 0.608 0.198 0.608 0.608-0.013 0.41-0.212 0.608-0.608 0.608zM55.821 19.323v-6.355h0.912v6.355h-0.912z"></path>
<path d="M60.974 13.879h-2.418v5.443h-0.912v-6.355h3.33c2.021 0 3.026 1.004 3.026 3.026v3.329h-0.912v-3.329c0-1.4-0.713-2.114-2.114-2.114z"></path>
</symbol>
<symbol id="icon-clients9" viewBox="0 0 64 32">
<path d="M56.641 13.978h-0.793v5.117h0.994v-2.94c0.131-0.461 0.331-0.823 0.602-1.073 0.261-0.251 0.563-0.381 0.904-0.381 0.401 0 0.702 0.12 0.883 0.361 0.201 0.231 0.291 0.572 0.291 1.023v3.010h0.984v-3.060c0-0.070 0-0.151-0.010-0.221l-0.030-0.211c0.332-0.602 0.794-0.903 1.396-0.903 0.371 0 0.662 0.12 0.853 0.361 0.19 0.231 0.291 0.572 0.291 1.023v3.010h0.994v-3.080c0-0.682-0.171-1.214-0.512-1.595-0.331-0.371-0.833-0.562-1.506-0.562-0.381 0-0.733 0.080-1.054 0.241-0.322 0.15-0.583 0.381-0.773 0.672-0.141-0.301-0.362-0.532-0.643-0.682-0.301-0.15-0.632-0.231-1.004-0.231-0.823 0-1.416 0.371-1.767 1.114l-0.1-0.993zM51.852 14.69c0.271 0 0.522 0.050 0.743 0.14s0.412 0.221 0.572 0.391c0.151 0.161 0.271 0.351 0.362 0.582 0.090 0.221 0.131 0.462 0.131 0.732s-0.040 0.522-0.131 0.752c-0.080 0.231-0.201 0.421-0.362 0.582-0.15 0.161-0.341 0.281-0.562 0.381-0.221 0.080-0.472 0.13-0.753 0.13-0.271 0-0.522-0.050-0.743-0.13-0.221-0.1-0.412-0.221-0.572-0.381-0.151-0.161-0.271-0.351-0.362-0.582s-0.131-0.482-0.131-0.752c0-0.271 0.040-0.512 0.131-0.742 0.080-0.231 0.201-0.421 0.362-0.592 0.15-0.16 0.341-0.281 0.562-0.381 0.231-0.080 0.482-0.13 0.753-0.13zM51.852 13.857c-0.412 0-0.783 0.070-1.125 0.201s-0.633 0.321-0.873 0.562c-0.251 0.241-0.442 0.522-0.582 0.853-0.131 0.331-0.201 0.682-0.201 1.064 0 0.391 0.070 0.752 0.201 1.084s0.321 0.612 0.563 0.853c0.251 0.231 0.542 0.421 0.883 0.542 0.341 0.141 0.723 0.201 1.135 0.201 0.401 0 0.773-0.070 1.114-0.201s0.633-0.321 0.884-0.562c0.241-0.241 0.432-0.522 0.572-0.853s0.211-0.682 0.211-1.064c0-0.391-0.070-0.752-0.201-1.084s-0.321-0.612-0.572-0.853c-0.251-0.231-0.542-0.421-0.884-0.542-0.341-0.141-0.713-0.201-1.124-0.201zM47.615 15.272l0.542-0.642c-0.251-0.251-0.552-0.451-0.903-0.572-0.351-0.141-0.753-0.201-1.205-0.201-0.381 0-0.743 0.060-1.064 0.191-0.341 0.13-0.622 0.311-0.863 0.542-0.251 0.231-0.442 0.512-0.583 0.853-0.15 0.321-0.22 0.692-0.22 1.104 0 0.371 0.060 0.722 0.18 1.043 0.111 0.331 0.282 0.612 0.522 0.853 0.221 0.241 0.512 0.431 0.844 0.572 0.341 0.131 0.733 0.201 1.164 0.201 0.462 0 0.884-0.070 1.245-0.221 0.381-0.14 0.702-0.371 0.984-0.682l-0.592-0.612c-0.191 0.211-0.432 0.371-0.703 0.492-0.271 0.1-0.572 0.161-0.893 0.161-0.552 0-0.994-0.171-1.305-0.502s-0.472-0.783-0.472-1.355c0-0.281 0.050-0.532 0.141-0.752s0.22-0.411 0.381-0.562c0.16-0.15 0.351-0.271 0.572-0.351 0.211-0.080 0.441-0.12 0.683-0.12 0.331 0 0.622 0.050 0.884 0.151 0.251 0.1 0.472 0.241 0.662 0.411zM41.812 17.8c-0.191 0-0.351 0.060-0.482 0.191-0.14 0.12-0.211 0.281-0.211 0.492 0 0.201 0.070 0.361 0.211 0.492 0.131 0.12 0.291 0.181 0.482 0.181s0.351-0.060 0.482-0.181c0.141-0.13 0.211-0.291 0.211-0.492 0-0.211-0.070-0.371-0.211-0.492-0.131-0.131-0.291-0.191-0.482-0.191z"></path>
<path d="M36.079 13.978h-1.235l1.837 2.418-2.008 2.699h1.225l1.436-2.167h0.1l1.526 2.167h1.235l-2.028-2.659 1.817-2.458h-1.174l-1.305 1.956h-0.1l-1.325-1.956zM32.294 16.868v0.221c0 0.191-0.040 0.371-0.131 0.522-0.090 0.161-0.201 0.301-0.361 0.411-0.14 0.11-0.321 0.201-0.522 0.271-0.191 0.060-0.402 0.090-0.633 0.090-0.371 0-0.663-0.070-0.853-0.211-0.201-0.151-0.301-0.361-0.301-0.642 0-0.261 0.1-0.472 0.301-0.642 0.211-0.161 0.552-0.241 1.034-0.241 0.552 0 1.034 0.070 1.466 0.221zM28.83 14.45l0.392 0.702c0.552-0.291 1.124-0.442 1.737-0.442 0.452 0 0.793 0.090 1.004 0.281s0.321 0.462 0.321 0.833v0.281c-0.211-0.070-0.442-0.13-0.703-0.181-0.241-0.050-0.512-0.070-0.793-0.070-0.713 0-1.265 0.15-1.677 0.442s-0.612 0.702-0.612 1.214c0 0.552 0.171 0.983 0.532 1.264 0.341 0.301 0.823 0.441 1.436 0.441 0.893 0 1.556-0.301 1.988-0.893 0.050 0.331 0.171 0.552 0.331 0.672 0.181 0.131 0.392 0.191 0.643 0.191 0.201 0 0.372-0.030 0.512-0.1l-0.090-0.743c-0.070 0.030-0.14 0.040-0.211 0.040-0.12 0-0.221-0.050-0.291-0.13-0.070-0.1-0.11-0.251-0.11-0.462v-1.876c0-0.642-0.181-1.144-0.552-1.515-0.372-0.361-0.954-0.542-1.747-0.542-0.381 0-0.743 0.040-1.084 0.14-0.341 0.080-0.683 0.241-1.024 0.451zM24.784 14.691c0.271 0 0.522 0.050 0.743 0.14s0.412 0.221 0.572 0.391c0.151 0.161 0.271 0.351 0.361 0.582 0.090 0.221 0.131 0.462 0.131 0.732s-0.040 0.522-0.131 0.752c-0.080 0.231-0.201 0.421-0.361 0.582-0.151 0.161-0.341 0.281-0.562 0.381-0.221 0.080-0.472 0.13-0.753 0.13-0.271 0-0.522-0.050-0.743-0.13-0.221-0.1-0.412-0.221-0.572-0.381-0.151-0.161-0.271-0.351-0.361-0.582s-0.131-0.482-0.131-0.752c0-0.271 0.040-0.512 0.131-0.742 0.080-0.231 0.201-0.421 0.361-0.592 0.151-0.16 0.341-0.281 0.562-0.381 0.231-0.080 0.482-0.13 0.753-0.13zM24.784 13.858c-0.412 0-0.783 0.070-1.125 0.201s-0.632 0.321-0.873 0.562c-0.251 0.241-0.442 0.522-0.582 0.853-0.131 0.331-0.201 0.682-0.201 1.064 0 0.391 0.070 0.752 0.201 1.084s0.321 0.612 0.562 0.853c0.251 0.231 0.542 0.421 0.884 0.542 0.341 0.141 0.723 0.201 1.134 0.201 0.402 0 0.773-0.070 1.114-0.201s0.633-0.321 0.884-0.562c0.241-0.241 0.432-0.522 0.572-0.853s0.211-0.682 0.211-1.064c0-0.391-0.070-0.752-0.201-1.084s-0.321-0.612-0.572-0.853c-0.251-0.231-0.542-0.421-0.883-0.542-0.341-0.141-0.713-0.201-1.124-0.201zM20.357 15.152l0.412-0.752c-0.291-0.191-0.622-0.321-0.974-0.412s-0.723-0.13-1.114-0.13c-0.733 0-1.285 0.14-1.657 0.421-0.371 0.291-0.562 0.662-0.562 1.114 0 0.421 0.131 0.753 0.381 0.993 0.251 0.251 0.622 0.401 1.104 0.451l1.205 0.14c0.331 0.030 0.562 0.11 0.693 0.211 0.13 0.12 0.191 0.271 0.191 0.471 0 0.231-0.12 0.411-0.351 0.542-0.241 0.13-0.602 0.191-1.084 0.191-0.341 0-0.663-0.040-0.974-0.131s-0.612-0.231-0.913-0.421l-0.422 0.753c0.351 0.231 0.713 0.401 1.064 0.482 0.361 0.1 0.763 0.14 1.205 0.14 0.773 0 1.365-0.14 1.787-0.421 0.432-0.281 0.643-0.672 0.643-1.174 0-0.472-0.161-0.813-0.482-1.053-0.311-0.221-0.753-0.381-1.305-0.452l-1.044-0.12c-0.271-0.030-0.462-0.1-0.562-0.191-0.12-0.1-0.171-0.241-0.171-0.411 0-0.211 0.111-0.381 0.311-0.512 0.221-0.12 0.522-0.181 0.924-0.181 0.612 0 1.175 0.15 1.697 0.451z"></path>
<path d="M5.334 17.721l-1.146 1.145c-0.479 0.479-1.107 0.718-1.735 0.718s-1.256-0.239-1.735-0.718c-0.479-0.479-0.718-1.106-0.718-1.734s0.24-1.255 0.718-1.733l3.945-3.942c0.067 0.14 0.159 0.272 0.275 0.388l0.002 0.002c0.116 0.116 0.248 0.208 0.388 0.275l-3.945 3.943c-0.295 0.295-0.443 0.682-0.443 1.069s0.148 0.774 0.443 1.069 0.682 0.443 1.070 0.443c0.387 0 0.774-0.148 1.070-0.443l1.146-1.145c0.067 0.141 0.159 0.273 0.276 0.389s0.249 0.208 0.389 0.275zM6.544 15.182l1.146-1.145c0.479-0.479 1.107-0.718 1.735-0.718s1.256 0.239 1.735 0.718c0.479 0.479 0.719 1.106 0.719 1.733s-0.24 1.255-0.719 1.734l-3.944 3.942c-0.067-0.141-0.159-0.273-0.276-0.389h-0.002c-0.116-0.116-0.248-0.208-0.388-0.275l3.945-3.943c0.295-0.295 0.443-0.682 0.443-1.069s-0.148-0.774-0.443-1.069c-0.295-0.295-0.682-0.443-1.069-0.443s-0.774 0.148-1.069 0.443l-1.146 1.145c-0.067-0.141-0.159-0.273-0.276-0.389s-0.249-0.208-0.389-0.275z"></path>
<path d="M6.939 23.045l-0.002 0c-0.275 0.274-0.634 0.412-0.993 0.412s-0.718-0.137-0.993-0.412h-0.002c-0.275-0.275-0.412-0.635-0.412-0.994s0.137-0.72 0.412-0.994h0.002c0.275-0.274 0.634-0.412 0.993-0.412s0.718 0.137 0.993 0.412h0.002c0.275 0.275 0.412 0.634 0.412 0.994s-0.137 0.719-0.412 0.994zM6.275 22.381l-0.001-0.001c0.091-0.091 0.136-0.21 0.136-0.329s-0.045-0.239-0.136-0.329l0.001-0.001c-0.091-0.090-0.21-0.135-0.33-0.135s-0.24 0.045-0.33 0.135l0.001 0.001c-0.091 0.091-0.136 0.21-0.136 0.329s0.045 0.239 0.136 0.329l-0.001 0.001c0.091 0.090 0.21 0.135 0.33 0.135s0.24-0.045 0.33-0.135zM4.938 9.859h0.002c0.275-0.274 0.634-0.412 0.993-0.412s0.718 0.137 0.993 0.412h0.002c0.275 0.275 0.412 0.634 0.412 0.994s-0.137 0.72-0.412 0.994c-0.275 0.274-0.635 0.412-0.995 0.412-0.359 0-0.718-0.137-0.993-0.412l-0.002-0.002c-0.275-0.275-0.412-0.634-0.412-0.992s0.137-0.718 0.412-0.992v-0.002zM5.603 10.523v0c-0.090 0.091-0.135 0.21-0.135 0.33s0.045 0.24 0.135 0.33c0.091 0.090 0.21 0.135 0.33 0.135s0.239-0.045 0.33-0.136c0.091-0.091 0.136-0.21 0.136-0.329s-0.046-0.238-0.136-0.329l0.001-0.001c-0.091-0.090-0.21-0.135-0.33-0.135s-0.24 0.045-0.33 0.135zM4.944 15.458c0.275-0.275 0.635-0.412 0.995-0.412s0.72 0.137 0.995 0.412c0.275 0.275 0.412 0.634 0.412 0.994s-0.137 0.719-0.412 0.994c-0.275 0.275-0.635 0.412-0.995 0.412s-0.72-0.137-0.994-0.412c-0.275-0.275-0.412-0.634-0.412-0.994s0.137-0.719 0.412-0.994zM5.609 16.123c-0.091 0.091-0.137 0.21-0.137 0.329s0.046 0.238 0.136 0.329c0.091 0.091 0.21 0.136 0.33 0.136s0.239-0.045 0.329-0.136c0.091-0.091 0.136-0.21 0.136-0.329s-0.045-0.238-0.136-0.329c-0.091-0.091-0.21-0.136-0.33-0.136s-0.238 0.045-0.329 0.136z"></path>
</symbol>
<symbol id="icon-clients10" viewBox="0 0 64 32">
<path opacity="0.08" d="M0 25.806l7.202-19.602h56.255l-7.134 19.602h-56.323z"></path>
<path d="M7.677 12.963l0.747-1.893h7.541l-0.747 1.893h-2.582l-3.057 7.773h-2.378l2.989-7.773h-2.514z"></path>
<path d="M13.384 20.736l3.805-9.666h2.31l-3.805 9.666h-2.31z"></path>
<path d="M19.363 20.736l3.737-9.666h2.31l-3.737 9.666h-2.31z"></path>
<path d="M22.964 20.736l3.737-9.666h2.31l-3.805 9.666h-2.242z"></path>
<path d="M32.408 20.736l3.737-9.666h2.31l-3.805 9.666h-2.242z"></path>
<path d="M36.076 20.736l3.737-9.666h2.31l-3.805 9.666h-2.242z"></path>
<path d="M22.285 14.72h-4.892v1.69h4.892v-1.69z"></path>
<path d="M28.127 11.747l0.883-0.676h2.718c0 0 2.989 0 2.582 1.352s-1.019 2.569-1.019 2.569-0.612 1.487-3.329 1.284l1.291 4.461h-2.65l-0.883-3.38 0.951-2.569h1.427c0 0 0.883 0.068 1.155-0.338s0.34-0.744 0.34-0.744 0.34-0.744-0.883-0.744h-3.057l0.476-1.217z"></path>
<path d="M38.183 18.641l0.815 0.27h1.563c0 0 1.97 0.135 2.582-1.419s2.514-6.421 2.514-6.421h2.31l-2.786 7.165c0 0-0.612 2.501-4.688 2.501h-3.193l0.883-2.095z"></path>
<path d="M53.809 20.736h-6.115c0 0-1.427-0.203-1.698-0.744s0.611-2.231 0.611-2.298 1.835-4.461 1.835-4.461c0 0 0.883-2.163 3.533-2.163h5.707l-0.815 1.825h-4.416c0 0-1.495-0.068-1.834 0.744-0.272 0.811-0.408 1.081-0.408 1.081h5.911l-0.611 1.622h-5.979l-0.612 1.622c0 0-0.476 1.081 0.612 1.081h4.96l-0.679 1.69z"></path>
<path opacity="0.45" d="M7.202 6.204l0.611-1.352h56.187l-0.544 1.352h-56.255z"></path>
<path opacity="0.45" d="M50.412 29.051l0.408-1.149v-0.068h0.883l-0.408 1.217h1.223l0.476-1.217h0.815c0 0-0.34 1.081-0.543 1.487-0.204 0.473-0.951 0.406-0.951 0.406h-0.272l-0.612 1.622h-0.883l0.679-1.622h-0.543c-0.544 0-0.272-0.676-0.272-0.676zM50.004 28.577l0.34-0.676h-2.378c0 0-0.544-0.068-0.815 0.608-0.272 0.608-0.272 0.811-0.272 0.811s-0.136 0.541 0.612 0.541h0.679c0 0 0.679 0 0.543 0.338s-0.34 0.608-0.34 0.608h-1.97l-0.34 0.608h2.038c0 0 0.815 0 1.087-0.541s0.34-1.081 0.34-1.081 0.272-0.676-0.612-0.676h-1.223c0 0 0-0.473 0.408-0.473s1.902-0.068 1.902-0.068zM29.622 31.349h-0.951l1.291-2.907c0 0 0.272-0.541 0.951-0.541h2.31l-0.34 0.676h-1.766c0 0-0.408-0.068-0.611 0.473h2.106l-0.34 0.744h-2.038l-0.611 1.555zM36.009 27.902h-1.767c-0.543 0-0.815 0.744-0.815 0.744l-1.155 2.704h0.951l0.612-1.555h1.291l-0.612 1.555h0.815c0 0 0.815-2.028 1.087-2.771 0.272-0.676-0.408-0.676-0.408-0.676zM35.533 28.78l-0.136 0.27h-1.291c0.204-0.541 0.408-0.608 0.408-0.608h0.747c0.34 0.068 0.272 0.338 0.272 0.338zM44.433 27.902h1.766c0 0 0.747 0 0.408 0.676-0.272 0.744-1.087 2.771-1.087 2.771h-0.815l0.612-1.555h-1.291l-0.612 1.555h-0.951l1.155-2.704c0 0 0.272-0.744 0.815-0.744zM45.588 29.051l0.136-0.27c0 0 0.136-0.27-0.272-0.338h-0.747c0 0-0.204 0.068-0.408 0.608h1.291zM36.688 31.349h-0.951l1.427-3.447h2.31c0 0 0.815 0.068 0.476 0.879s-0.951 2.569-0.951 2.569h-0.951l0.815-2.298c0 0 0.204-0.541-0.204-0.541h-0.883l-1.087 2.839zM40.221 31.349h0.815l1.155-2.839h0.951l0.272-0.608h-2.786l-0.204 0.608h0.883l-1.087 2.839z"></path>
</symbol>
<symbol id="icon-clients11" viewBox="0 0 64 32">
<path d="M0 10.046h4.019c2.934 0 4.645 2.251 4.645 5.193 0 2.927-1.712 5.149-4.645 5.149h-4.019v-10.342zM4.019 18.753c1.861 0 2.814-1.591 2.814-3.512 0-1.937-0.953-3.558-2.814-3.558h-2.204v7.071h2.204z"></path>
<path d="M9.336 11.528c0-0.615 0.521-1.065 1.131-1.065 0.624 0 1.116 0.45 1.116 1.065 0 0.6-0.492 1.065-1.116 1.065-0.61 0-1.131-0.465-1.131-1.065zM9.605 13.379l1.726-0.002v7.013h-1.726v-7.010z"></path>
<path d="M18.962 16.202v4.188h-1.786v-0.93c-0.492 0.646-1.534 1.080-2.501 1.080-1.517 0-2.605-0.855-2.605-2.176 0-1.411 1.265-2.191 2.874-2.191 0.819 0 1.666 0.196 2.233 0.496v-0.421c0-0.886-0.624-1.501-1.652-1.501-0.879 0-1.697 0.315-2.069 0.75l-0.982-0.99c0.595-0.765 1.832-1.276 3.171-1.276 1.921-0.002 3.318 1.049 3.318 2.971zM17.175 18.122v-0.286c-0.476-0.286-1.22-0.465-1.921-0.465-0.996 0-1.488 0.421-1.488 0.915 0 0.496 0.476 0.825 1.251 0.825 0.79 0 1.728-0.375 2.158-0.99z"></path>
<path d="M27.030 19.398c0 3.152-1.517 4.517-3.901 4.517-1.428 0-2.679-0.78-3.289-2.055l1.428-0.661c0.343 0.69 1.102 1.14 1.861 1.14 1.34 0 2.173-0.78 2.173-2.777v-0.104c-0.492 0.721-1.46 1.080-2.307 1.080-1.832 0-3.424-1.426-3.424-3.663 0-2.251 1.577-3.648 3.409-3.648 0.893 0 1.832 0.346 2.322 1.065v-0.915h1.728v6.020zM25.273 16.861c0-1.23-1.013-2.012-2.009-2.012-1.071 0-1.949 0.84-1.949 2.012s0.879 2.041 1.949 2.041c1.058 0.002 2.009-0.809 2.009-2.041z"></path>
<path d="M36.246 16.861c0-2.222 1.712-3.633 3.692-3.633s3.707 1.411 3.707 3.633c0 2.222-1.726 3.677-3.707 3.677-1.98 0.002-3.692-1.455-3.692-3.677zM41.905 16.861c0-1.201-0.893-2.012-1.964-2.012s-1.949 0.811-1.949 2.012c0 1.23 0.879 2.055 1.949 2.055 1.071 0.002 1.964-0.823 1.964-2.055z"></path>
<path d="M44.106 18.197h1.623c0 0.479 0.418 0.93 1.145 0.93 0.684 0 1.131-0.315 1.131-0.765 0-0.39-0.298-0.571-0.819-0.69l-0.922-0.24c-1.563-0.421-1.964-1.261-1.964-2.147 0-1.097 1.071-2.057 2.59-2.057 1.236 0 2.636 0.615 2.619 2.191h-1.652c0-0.496-0.432-0.796-0.922-0.796-0.535 0-0.908 0.3-0.908 0.736 0 0.361 0.343 0.571 0.744 0.661l1.116 0.3c1.563 0.404 1.846 1.397 1.846 2.041 0 1.426-1.414 2.176-2.828 2.176-1.387 0.004-2.772-0.838-2.801-2.339z"></path>
<path d="M50.223 16.757v-6.299l1.817 0.004v6.206c0 1.486 0.967 2.13 2.055 2.13 1.073 0 2.040-0.646 2.040-2.13v-6.21h1.817v6.299c0 2.356-1.801 3.784-3.856 3.784-2.071 0-3.874-1.428-3.874-3.784z"></path>
<path d="M35.601 17.013v3.377h-1.817v-3.287c0-1.486-0.967-2.13-2.055-2.13-1.073 0-2.040 0.646-2.040 2.13v3.287h-1.817v-3.377c0-2.356 1.801-3.784 3.856-3.784 2.072 0 3.874 1.428 3.874 3.784z"></path>
<path d="M58.371 18.197h1.623c0 0.479 0.418 0.93 1.145 0.93 0.684 0 1.131-0.315 1.131-0.765 0-0.39-0.298-0.571-0.819-0.69l-0.922-0.24c-1.563-0.421-1.964-1.261-1.964-2.147 0-1.097 1.071-2.057 2.59-2.057 1.236 0 2.636 0.615 2.619 2.191h-1.652c0-0.496-0.432-0.796-0.922-0.796-0.536 0-0.908 0.3-0.908 0.736 0 0.361 0.343 0.571 0.744 0.661l1.116 0.3c1.563 0.404 1.846 1.397 1.846 2.041 0 1.426-1.414 2.176-2.828 2.176-1.387 0.004-2.772-0.838-2.801-2.339z"></path>
</symbol>
<symbol id="icon-clients12" viewBox="0 0 64 32">
<path d="M0 14.812c0-2.013 1.218-2.982 2.785-2.982 1.069 0 1.902 0.472 2.35 1.354 0.448-0.882 1.281-1.354 2.35-1.354 1.567 0 2.785 0.969 2.785 2.982v5.306h-1.268v-5.306c0-1.243-0.696-1.814-1.616-1.814-0.932 0-1.616 0.596-1.616 1.814v5.306h-1.268v-5.306c0-1.218-0.684-1.814-1.616-1.814-0.92 0-1.616 0.572-1.616 1.814v5.306h-1.268v-5.306h0z"></path>
<path d="M11.277 17.048c0-1.864 1.368-3.231 3.307-3.231s3.282 1.367 3.282 3.231v0.435h-5.346c0.174 1.093 0.995 1.702 2.064 1.702 0.796 0 1.355-0.248 1.716-0.783h1.305c-0.473 1.143-1.591 1.876-3.021 1.876-1.94 0-3.307-1.367-3.307-3.231zM16.623 16.427c-0.236-0.982-1.044-1.516-2.039-1.516-1.019 0-1.79 0.547-2.027 1.516h4.065z"></path>
<path d="M18.836 17.794v-5.989h1.181v2.175h2.569v1.081h-2.569v2.734c0 0.969 0.51 1.392 1.281 1.392s1.293-0.41 1.293-1.392v-0.137h1.169v0.137c0 1.665-0.995 2.485-2.462 2.485s-2.461-0.82-2.461-2.485z"></path>
<path d="M24.741 16.502c0-1.814 1.069-2.684 2.648-2.684 1.567 0 2.636 0.87 2.636 2.696v0.062h-1.168v-0.075c0-1.131-0.597-1.59-1.467-1.59-0.883 0-1.467 0.46-1.467 1.59v3.616h-1.181v-3.616z"></path>
<path d="M35.369 17.675c0.842-0.203 1.363-1.062 1.164-1.92s-1.042-1.389-1.883-1.186c-0.841 0.203-1.363 1.062-1.164 1.92s1.042 1.389 1.883 1.186z"></path>
<path opacity="0.5" d="M60.562 11.295c0.326 0 0.591 0.27 0.591 0.602v7.618c0 0.333-0.264 0.602-0.591 0.602s-0.591-0.27-0.591-0.602v-7.618c0-0.333 0.265-0.602 0.591-0.602zM47.241 11.83c-2.537 0-4.327 1.789-4.327 4.225s1.79 4.225 4.327 4.225c2.076 0 3.668-1.218 4.165-3.007h-1.343c-0.435 1.106-1.467 1.839-2.822 1.839-1.803 0-3.046-1.292-3.046-3.057s1.243-3.057 3.046-3.057c1.355 0 2.387 0.733 2.822 1.839h1.343c-0.497-1.789-2.089-3.007-4.165-3.007zM55.496 13.818c-1.94 0-3.307 1.367-3.307 3.231s1.368 3.231 3.307 3.231c1.43 0 2.549-0.733 3.021-1.876h-1.305c-0.361 0.534-0.92 0.783-1.716 0.783-1.069 0-1.89-0.609-2.064-1.702h5.346v-0.435c0-1.864-1.342-3.231-3.282-3.231zM55.496 14.911c0.995 0 1.803 0.534 2.039 1.516h-4.065c0.236-0.969 1.007-1.516 2.027-1.516zM64 11.898c0-0.333-0.265-0.602-0.591-0.602s-0.59 0.27-0.591 0.602v7.618c0 0.333 0.264 0.602 0.591 0.602s0.591-0.27 0.591-0.602v-7.618zM35.010 12.562c-1.926 0-3.492 1.592-3.492 3.563s1.567 3.564 3.492 3.564c1.925 0 3.492-1.592 3.492-3.564s-1.567-3.563-3.492-3.563zM30.484 16.125c0-2.543 2.023-4.61 4.526-4.61s4.525 2.067 4.525 4.61-2.023 4.61-4.525 4.61c-2.502 0-4.526-2.067-4.526-4.61zM20.017 13.979h2.569v1.081h-2.569v-1.081z"></path>
</symbol>
<symbol id="icon-clients121" viewBox="0 0 64 32">
<path d="M0 14.812c0-2.013 1.218-2.982 2.785-2.982 1.069 0 1.902 0.472 2.35 1.354 0.448-0.882 1.281-1.354 2.35-1.354 1.567 0 2.785 0.969 2.785 2.982v5.306h-1.268v-5.306c0-1.243-0.696-1.814-1.616-1.814-0.932 0-1.616 0.596-1.616 1.814v5.306h-1.268v-5.306c0-1.218-0.684-1.814-1.616-1.814-0.92 0-1.616 0.572-1.616 1.814v5.306h-1.268v-5.306h0z"></path>
<path d="M11.277 17.048c0-1.864 1.368-3.231 3.307-3.231s3.282 1.367 3.282 3.231v0.435h-5.346c0.174 1.093 0.995 1.702 2.064 1.702 0.796 0 1.355-0.248 1.716-0.783h1.305c-0.473 1.143-1.591 1.876-3.021 1.876-1.94 0-3.307-1.367-3.307-3.231zM16.623 16.427c-0.236-0.982-1.044-1.516-2.039-1.516-1.019 0-1.79 0.547-2.027 1.516h4.065z"></path>
<path d="M18.836 17.794v-5.989h1.181v2.175h2.569v1.081h-2.569v2.734c0 0.969 0.51 1.392 1.281 1.392s1.293-0.41 1.293-1.392v-0.137h1.169v0.137c0 1.665-0.995 2.485-2.462 2.485s-2.461-0.82-2.461-2.485z"></path>
<path d="M24.741 16.502c0-1.814 1.069-2.684 2.648-2.684 1.567 0 2.636 0.87 2.636 2.696v0.062h-1.168v-0.075c0-1.131-0.597-1.59-1.467-1.59-0.883 0-1.467 0.46-1.467 1.59v3.616h-1.181v-3.616z"></path>
<path d="M35.369 17.675c0.842-0.203 1.363-1.062 1.164-1.92s-1.042-1.389-1.883-1.186c-0.841 0.203-1.363 1.062-1.164 1.92s1.042 1.389 1.883 1.186z"></path>
<path opacity="1" d="M60.562 11.295c0.326 0 0.591 0.27 0.591 0.602v7.618c0 0.333-0.264 0.602-0.591 0.602s-0.591-0.27-0.591-0.602v-7.618c0-0.333 0.265-0.602 0.591-0.602zM47.241 11.83c-2.537 0-4.327 1.789-4.327 4.225s1.79 4.225 4.327 4.225c2.076 0 3.668-1.218 4.165-3.007h-1.343c-0.435 1.106-1.467 1.839-2.822 1.839-1.803 0-3.046-1.292-3.046-3.057s1.243-3.057 3.046-3.057c1.355 0 2.387 0.733 2.822 1.839h1.343c-0.497-1.789-2.089-3.007-4.165-3.007zM55.496 13.818c-1.94 0-3.307 1.367-3.307 3.231s1.368 3.231 3.307 3.231c1.43 0 2.549-0.733 3.021-1.876h-1.305c-0.361 0.534-0.92 0.783-1.716 0.783-1.069 0-1.89-0.609-2.064-1.702h5.346v-0.435c0-1.864-1.342-3.231-3.282-3.231zM55.496 14.911c0.995 0 1.803 0.534 2.039 1.516h-4.065c0.236-0.969 1.007-1.516 2.027-1.516zM64 11.898c0-0.333-0.265-0.602-0.591-0.602s-0.59 0.27-0.591 0.602v7.618c0 0.333 0.264 0.602 0.591 0.602s0.591-0.27 0.591-0.602v-7.618zM35.010 12.562c-1.926 0-3.492 1.592-3.492 3.563s1.567 3.564 3.492 3.564c1.925 0 3.492-1.592 3.492-3.564s-1.567-3.563-3.492-3.563zM30.484 16.125c0-2.543 2.023-4.61 4.526-4.61s4.525 2.067 4.525 4.61-2.023 4.61-4.525 4.61c-2.502 0-4.526-2.067-4.526-4.61zM20.017 13.979h2.569v1.081h-2.569v-1.081z"></path>
</symbol>
</defs>
</svg>
