<svg width="32" height="32" viewBox="0 0 32 32" fill="none" xmlns="http://www.w3.org/2000/svg">
<path d="M12.9145 15.0604C12.9145 15.0604 15.9426 14.8355 15.9426 11.2843C15.9426 7.73302 13.465 6 10.3268 6H4.5502H4.38049H0V25.8457H4.38049H4.5502H10.3268C10.3268 25.8457 16.6309 26.0445 16.6309 19.9881C16.6309 19.9881 16.9061 15.0604 12.9145 15.0604ZM4.5502 9.52712H9.58345H10.3268C10.3268 9.52712 11.7307 9.52712 11.7307 11.5918C11.7307 13.6565 10.9048 13.9558 9.96889 13.9558H4.5502V9.52712ZM10.0605 22.3186H4.5502V17.015H10.3268C10.3268 17.015 12.4189 16.9875 12.4189 19.7403C12.4189 22.0356 10.8886 22.2956 10.0605 22.3186Z" fill="#201747"/>
<path d="M25.0384 11.0493C17.4066 11.0493 17.4135 18.6742 17.4135 18.6742C17.4135 18.6742 16.8898 26.2606 25.0386 26.2606C25.0386 26.2606 31.8294 26.6485 31.8294 20.9831H28.3369C28.3369 20.9831 28.4532 23.1171 25.1549 23.1171C25.1549 23.1171 21.6624 23.3507 21.6624 19.664H31.9457C31.9457 19.664 33.0708 11.0493 25.0384 11.0493ZM28.1426 17.0151H21.6235C21.6235 17.0151 22.0504 13.956 25.116 13.956C28.1816 13.956 28.1426 17.0151 28.1426 17.0151Z" fill="#201747"/>
<path d="M28.9572 7.13306H20.7695V9.13306H28.9572V7.13306Z" fill="#201747"/>
</svg>
