<svg width="24" height="24" viewBox="0 0 24 24" fill="none" xmlns="http://www.w3.org/2000/svg">
<path d="M13.8826 14.9626C14.2709 14.9626 14.5858 14.6477 14.5858 14.2594V11.2469C14.4781 8.31695 10.2722 8.32182 10.167 11.2469V14.2594C10.2016 15.1914 11.539 15.1907 11.5732 14.2594V13.4563H13.1795V14.2594C13.1795 14.6477 13.4943 14.9626 13.8826 14.9626ZM11.5732 12.05V11.2469C11.6119 10.1825 13.1411 10.1829 13.1795 11.2469V12.05H11.5732Z" fill="#201747"/>
<path d="M0.703125 14.9625H2.58595C4.26427 14.9635 5.04886 12.866 3.80925 11.766C4.49747 10.5734 3.59128 9.01817 2.20941 9.03753H0.703125C0.314812 9.03753 0 9.35234 0 9.74066V14.2594C0 14.6477 0.314812 14.9625 0.703125 14.9625ZM1.40625 10.4438H2.20936C2.77031 10.4615 2.77763 11.2756 2.20936 11.2969H1.40625V10.4438ZM1.40625 12.7032H2.58595C3.1507 12.7233 3.15023 13.5364 2.58595 13.5563H1.40625V12.7032Z" fill="#201747"/>
<path d="M9.31414 11.247C9.31414 10.0288 8.32302 9.0376 7.10478 9.0376H5.9751C5.58679 9.0376 5.27197 9.35241 5.27197 9.74072V14.2595C5.30657 15.1914 6.64396 15.1907 6.67822 14.2595V13.4563H6.81355L8.11386 14.7566C8.38846 15.0312 8.83363 15.0312 9.10822 14.7566C9.38282 14.4821 9.38282 14.0369 9.10822 13.7623L8.38902 13.043C8.94857 12.6418 9.31414 11.9865 9.31414 11.247ZM7.10478 12.0501H6.67822V10.4438H7.10478C8.16903 10.4843 8.16824 12.01 7.10478 12.0501Z" fill="#201747"/>
<path d="M21.0377 9.0376H20.6611C20.2728 9.0376 19.958 9.35241 19.958 9.74072V14.2595C19.958 14.6478 20.2728 14.9626 20.6611 14.9626H21.0377C24.9634 14.8132 24.9605 9.18558 21.0377 9.0376ZM21.3643 13.5219V10.4783C22.9939 10.8502 22.9927 13.1506 21.3643 13.5219Z" fill="#201747"/>
<path d="M16.8452 14.2594V12.7192L17.7726 14.5739C17.8361 14.7009 18.0984 15.0534 18.563 14.9438C18.8804 14.8688 19.1046 14.5855 19.1046 14.2594V9.74068C19.07 8.80876 17.7326 8.80946 17.6983 9.74068V11.2809L16.771 9.42624C16.6252 9.13454 16.2978 8.98144 15.9806 9.05635C15.6632 9.1313 15.439 9.41457 15.439 9.74068V14.2594C15.4736 15.1913 16.8109 15.1906 16.8452 14.2594Z" fill="#201747"/>
<path d="M23.2969 16.5688H0.703125C0.314812 16.5688 0 16.8837 0 17.272V20.2845C0 20.6728 0.314812 20.9876 0.703125 20.9876H23.2969C23.6852 20.9876 24 20.6728 24 20.2845V17.272C24 16.8837 23.6852 16.5688 23.2969 16.5688Z" fill="#201747"/>
<path d="M23.2969 3.01257H0.703125C0.314812 3.01257 0 3.32739 0 3.7157V6.72821C0 7.11653 0.314812 7.43134 0.703125 7.43134H23.2969C23.6852 7.43134 24 7.11653 24 6.72821V3.7157C24 3.32734 23.6852 3.01257 23.2969 3.01257Z" fill="#201747"/>
</svg>
