<svg width="32" height="32" viewBox="0 0 32 32" fill="none" xmlns="http://www.w3.org/2000/svg">
<path d="M23.8574 22.5271C22.1971 24.0013 20.0509 24.8012 17.8336 24.7717C12.7285 24.7717 8.97957 21.003 8.97957 15.8344C8.97957 10.6657 12.609 7.05602 17.8336 7.05602C20.0539 7.02574 22.2092 7.80974 23.8952 9.26045L25.0122 10.2215L29.9584 5.25191L28.7234 4.08877C25.7372 1.4054 21.8494 -0.0539932 17.8351 0.00152791C8.66097 0.00152791 2 6.65418 2 15.7935C2 24.9329 8.82065 31.7861 17.8351 31.7861C21.8838 31.8406 25.8038 30.3513 28.8036 27.6179L30 26.4948L24.9751 21.5244L23.8582 22.5264L23.8574 22.5271Z" fill="#201747"/>
<path d="M17.5951 21.2054C20.5253 21.2054 22.8924 18.8186 22.8924 15.8748C22.8924 12.931 20.5177 10.5442 17.5951 10.5442C14.6726 10.5442 12.2979 12.931 12.2979 15.8748C12.2979 18.8186 14.6726 21.2054 17.5951 21.2054Z" fill="#201747"/>
</svg>
