<svg width="24" height="24" viewBox="0 0 24 24" fill="none" xmlns="http://www.w3.org/2000/svg">
<path fill-rule="evenodd" clip-rule="evenodd" d="M6.35149 15.0515C5.88286 15.5201 5.88286 16.2799 6.35149 16.7485C6.82012 17.2171 7.57992 17.2171 8.04854 16.7485L11.0485 13.7485C11.8486 12.9485 11.8486 11.6515 11.0485 10.8515L8.04854 7.85147C7.57992 7.38284 6.82012 7.38284 6.35149 7.85147C5.88286 8.3201 5.88286 9.0799 6.35149 9.54853L9.10296 12.3L6.35149 15.0515ZM13.2 14.7C12.5372 14.7 12 15.2372 12 15.9C12 16.5628 12.5372 17.1 13.2 17.1H16.8C17.4628 17.1 18 16.5628 18 15.9C18 15.2372 17.4628 14.7 16.8 14.7H13.2ZM24 7.42102V7.50001V17.179C24.0001 18.2428 24.0001 19.1593 23.9015 19.8934C23.7956 20.68 23.5572 21.434 22.9456 22.0456C22.334 22.6572 21.58 22.8956 20.7934 23.0015C20.0593 23.1001 19.1428 23.1001 18.079 23.1H5.92104C4.85724 23.1001 3.94066 23.1001 3.20667 23.0015C2.42004 22.8956 1.66602 22.6572 1.05443 22.0456C0.442827 21.434 0.204339 20.68 0.0985829 19.8934C-0.000105089 19.1593 -5.70634e-05 18.2428 2.93659e-06 17.179V7.42104C-5.70634e-05 6.35724 -0.000105089 5.44066 0.0985829 4.70665C0.204339 3.92004 0.442827 3.16602 1.05443 2.55442C1.66602 1.94283 2.42004 1.70434 3.20667 1.59858C3.94066 1.49989 4.85723 1.49994 5.92102 1.5L18 1.50001C18.0264 1.50001 18.0528 1.5 18.079 1.5C19.1428 1.49994 20.0593 1.49989 20.7934 1.59858C21.58 1.70434 22.334 1.94283 22.9456 2.55443C23.5572 3.16602 23.7956 3.92004 23.9015 4.70665C24.0001 5.44064 24.0001 6.35723 24 7.42102Z" fill="#201747"/>
</svg>
