<svg width="24" height="24" viewBox="0 0 24 24" fill="none" xmlns="http://www.w3.org/2000/svg">
<path d="M2.44297 20.6451C2.85007 20.6152 3.24659 20.5013 3.6076 20.3108C3.96862 20.1203 4.28634 19.8572 4.54081 19.538C4.79528 19.2188 4.98099 18.8505 5.08629 18.4561C5.19159 18.0617 5.2142 17.6498 5.1527 17.2463C4.73791 13.2375 8.74756 12.8227 8.74756 12.8227L13.1717 16.4173C13.1717 16.4173 13.379 18.4221 10.683 21.7401C8.84227 24.006 4.74539 22.7262 2.33154 21.6865C2.22396 21.6403 2.13403 21.5607 2.07492 21.4596C2.01582 21.3585 1.99065 21.2412 2.00311 21.1247C2.01557 21.0083 2.065 20.8989 2.14415 20.8126C2.22331 20.7263 2.32803 20.6676 2.44297 20.6451ZM22.046 3.42315C22.2654 3.10234 22.3561 2.71076 22.3003 2.32614C22.2444 1.94151 22.0459 1.59196 21.7443 1.34685C21.4427 1.10173 21.0599 0.978981 20.672 1.00295C20.2841 1.02692 19.9193 1.19586 19.6502 1.47624L10.2765 11.2311L14.4158 14.5947L22.046 3.42315Z" fill="#201747"/>
</svg>
