<svg width="24" height="24" viewBox="0 0 24 24" fill="none" xmlns="http://www.w3.org/2000/svg">
<path d="M3.60552 5.18092L10.7982 0.875168C11.2113 0.629606 11.683 0.5 12.1636 0.5C12.6443 0.5 13.116 0.629606 13.5291 0.875168L20.7218 5.18092C20.9058 5.28668 21.0587 5.4391 21.165 5.62282C21.2713 5.80653 21.3273 6.01503 21.3273 6.22729C21.3273 6.43954 21.2713 6.64805 21.165 6.83176C21.0587 7.01547 20.9058 7.1679 20.7218 7.27366L13.5291 11.5794C13.116 11.825 12.6443 11.9546 12.1636 11.9546C11.683 11.9546 11.2113 11.825 10.7982 11.5794L3.60552 7.27366C3.42149 7.1679 3.26861 7.01547 3.16229 6.83176C3.05598 6.64805 3 6.43954 3 6.22729C3 6.01503 3.05598 5.80653 3.16229 5.62282C3.26861 5.4391 3.42149 5.28668 3.60552 5.18092ZM3.60552 13.0009L10.7982 17.3067C11.2113 17.5522 11.683 17.6818 12.1636 17.6818C12.6443 17.6818 13.116 17.5522 13.5291 17.3067L20.7218 13.0009C20.9058 12.8952 21.0587 12.7427 21.165 12.559C21.2713 12.3753 21.3273 12.1668 21.3273 11.9545C21.3273 11.7423 21.2713 11.5338 21.165 11.3501C21.0587 11.1664 20.9058 11.0139 20.7218 10.9082L19.3587 10.0922L14.4121 13.0542C13.7328 13.4619 12.9555 13.6773 12.1633 13.6772C11.3711 13.6771 10.5938 13.4615 9.91467 13.0536L4.96861 10.0928L3.60552 10.9087C3.42163 11.0145 3.26887 11.167 3.16265 11.3506C3.05643 11.5343 3.0005 11.7427 3.0005 11.9548C3.0005 12.167 3.05643 12.3754 3.16265 12.5591C3.26887 12.7427 3.42163 12.8951 3.60552 13.0009ZM3.60552 18.7282L10.7982 23.0339C11.2113 23.2795 11.683 23.4091 12.1636 23.4091C12.6443 23.4091 13.116 23.2795 13.5291 23.0339L20.7218 18.7282C20.9058 18.6224 21.0587 18.47 21.165 18.2863C21.2713 18.1026 21.3273 17.8941 21.3273 17.6818C21.3273 17.4695 21.2713 17.261 21.165 17.0773C21.0587 16.8936 20.9058 16.7412 20.7218 16.6354L19.3587 15.8194L14.4121 18.7814C13.7329 19.1893 12.9556 19.4047 12.1634 19.4047C11.3711 19.4047 10.5938 19.1893 9.91467 18.7814L4.96861 15.8207L3.60552 16.6366C3.42176 16.7424 3.26913 16.8948 3.163 17.0784C3.05687 17.262 3.001 17.4703 3.001 17.6824C3.001 17.8944 3.05687 18.1028 3.163 18.2864C3.26913 18.4699 3.42176 18.6223 3.60552 18.7282Z" fill="#201747"/>
</svg>
