<svg width="24" height="24" viewBox="0 0 24 24" fill="none" xmlns="http://www.w3.org/2000/svg">
<path fill-rule="evenodd" clip-rule="evenodd" d="M0 9.00001C0 4.58201 4.47701 1 10 1C15.523 1 20 4.58201 20 9.00001C20 13.418 15.523 17 10 17C8.89201 17 7.82901 16.85 6.83301 16.584L2 19V13.785C0.750001 12.45 0 10.797 0 9.00001ZM9.99996 19C16.384 19 21.604 14.821 21.965 9.57497C23.277 10.822 24 12.373 24 14C24 15.612 23.293 17.16 22 18.403V23.618L16.552 20.895C13.545 21.304 10.619 20.514 8.60596 18.928C9.06896 18.974 9.53496 19 9.99996 19Z" fill="#201747"/>
</svg>
