<svg width="33" height="32" viewBox="0 0 33 32" fill="none" xmlns="http://www.w3.org/2000/svg">
<path d="M15.9989 2.87981C20.2653 2.87981 20.7762 2.89581 22.4636 2.9726C24.2326 2.91231 25.9564 3.53875 27.2739 4.72075C28.4559 6.03831 29.0824 7.76207 29.0221 9.5311C29.0989 11.2217 29.1181 11.7326 29.1181 15.9989C29.1181 20.2653 29.1021 20.7762 29.0253 22.4636C29.0856 24.2326 28.4591 25.9564 27.2771 27.2739C25.9596 28.456 24.2358 29.0825 22.4668 29.0221C20.7794 29.0989 20.2738 29.1149 16.0021 29.1149C11.7304 29.1149 11.2249 29.0989 9.5375 29.0221C7.76847 29.0824 6.04471 28.4559 4.72715 27.2739C3.54506 25.9564 2.9186 24.2326 2.979 22.4636C2.89901 20.7762 2.87981 20.2706 2.87981 15.9989C2.87981 11.7272 2.89581 11.2217 2.9726 9.5343C2.91231 7.76527 3.53875 6.04151 4.72075 4.72395C6.03912 3.54117 7.76418 2.91468 9.5343 2.9758C11.2217 2.89901 11.7326 2.87981 15.9989 2.87981ZM15.9989 0C11.6547 0 11.1097 0.0181322 9.40204 0.0959936C6.91062 0.0513121 4.5 0.979978 2.68249 2.68462C0.977553 4.50195 0.0488395 6.9127 0.0938605 9.40417C0.0181322 11.1097 0 11.6547 0 15.9989C0 20.3432 0.0181322 20.8882 0.0959936 22.5958C0.0513121 25.0872 0.979978 27.4979 2.68462 29.3154C4.50195 31.0203 6.9127 31.949 9.40417 31.904C11.1107 31.9819 11.6568 32 16.0011 32C20.3453 32 20.8903 31.9819 22.598 31.904C25.0894 31.9487 27.5 31.02 29.3175 29.3154C31.0224 27.4981 31.9512 25.0873 31.9061 22.5958C31.984 20.8893 32.0021 20.3432 32.0021 15.9989C32.0021 11.6547 31.984 11.1097 31.9061 9.40204C31.9508 6.91062 31.0222 4.5 29.3175 2.68249C27.5002 0.977553 25.0894 0.0488395 22.598 0.0938605C20.8882 0.0181322 20.3432 0 15.9989 0Z" fill="#201747"/>
<path d="M15.9989 7.78625C14.3746 7.78625 12.7867 8.26793 11.4361 9.17036C10.0856 10.0728 9.0329 11.3555 8.4113 12.8561C7.78969 14.3568 7.62705 16.0082 7.94394 17.6013C8.26083 19.1944 9.04303 20.6578 10.1916 21.8064C11.3402 22.9549 12.8036 23.7371 14.3967 24.054C15.9898 24.3709 17.6411 24.2083 19.1418 23.5867C20.6425 22.9651 21.9252 21.9124 22.8276 20.5618C23.73 19.2112 24.2117 17.6234 24.2117 15.999C24.2117 13.8209 23.3464 11.7319 21.8062 10.1917C20.266 8.65153 18.1771 7.78625 15.9989 7.78625ZM15.9989 21.332C14.9442 21.332 13.9131 21.0192 13.0361 20.4333C12.1591 19.8473 11.4755 19.0144 11.0719 18.0399C10.6683 17.0654 10.5626 15.9931 10.7684 14.9586C10.9742 13.9241 11.4821 12.9739 12.2279 12.2281C12.9738 11.4822 13.924 10.9743 14.9585 10.7685C15.993 10.5628 17.0653 10.6684 18.0398 11.072C19.0142 11.4757 19.8471 12.1592 20.4331 13.0362C21.0191 13.9132 21.3319 14.9443 21.3319 15.999C21.3319 17.4134 20.77 18.7699 19.7699 19.77C18.7698 20.7702 17.4133 21.332 15.9989 21.332Z" fill="#201747"/>
<path d="M24.539 9.37844C25.5993 9.37844 26.4589 8.51888 26.4589 7.45857C26.4589 6.39825 25.5993 5.5387 24.539 5.5387C23.4787 5.5387 22.6191 6.39825 22.6191 7.45857C22.6191 8.51888 23.4787 9.37844 24.539 9.37844Z" fill="#201747"/>
</svg>
