<svg width="106" height="32" viewBox="0 0 106 32" fill="none" xmlns="http://www.w3.org/2000/svg">
<path d="M8.93233 8.40876V7.94161C8.93233 3.58151 5.38975 0 0.990723 0V14.0925C2.62576 11.1728 5.54546 9.07056 8.93233 8.40876Z" fill="#2D04E4"/>
<path d="M14.1486 23.9415C12.6693 23.7858 11.2289 23.2019 10.1 22.2286C9.82745 23.0072 9.63281 23.8637 9.63281 24.798C9.63281 28.7688 13.6815 31.4549 17.263 31.961H21.4284C21.4284 27.6788 18.3141 24.3698 14.1486 23.9415Z" fill="#2D04E4"/>
<path d="M13.7598 32C10.334 31.4161 7.64793 28.3796 7.64793 24.837C7.64793 20.399 10.7234 17.8686 14.1102 17.5182C18.3146 17.09 21.39 13.781 21.39 9.49878H12.3973C6.20753 9.49878 1.02992 14.4039 0.952058 20.5937C0.874199 26.9002 5.93502 32 12.2027 32H13.7598Z" fill="#2D04E4"/>
<path d="M31.7842 11.2118H35.5214V14.1315H38.7136C38.7136 15.8444 37.3511 17.2069 35.6382 17.2069H35.5214V22.696C35.5214 23.241 35.6771 23.6692 35.9496 23.9417C36.2221 24.2532 36.6114 24.3699 37.1175 24.3699C37.7014 24.3699 38.2075 24.2142 38.6358 23.9028L39.6479 26.5111C39.2976 26.7836 38.8304 26.9782 38.2854 27.1339C37.7404 27.2507 37.1954 27.3286 36.6114 27.3286C35.0932 27.3286 33.9253 26.9393 33.0688 26.1607C32.2513 25.3821 31.8231 24.2532 31.8231 22.7349V11.2118H31.7842Z" fill="#333333"/>
<path d="M43.9302 26.511C42.8402 25.966 42.0226 25.1485 41.3998 24.1753C40.7769 23.1631 40.5044 22.0341 40.5044 20.7495C40.5044 19.4648 40.8158 18.3358 41.3998 17.3237C42.0226 16.3115 42.8402 15.5329 43.9302 14.9879C45.0202 14.4429 46.227 14.1315 47.5506 14.1315C48.9132 14.1315 50.12 14.404 51.1711 14.9879C52.2222 15.5329 53.0786 16.3504 53.6625 17.3237C54.2854 18.3358 54.5579 19.4648 54.5579 20.7495C54.5579 22.0341 54.2465 23.1631 53.6625 24.1753C53.0397 25.1874 52.2222 25.966 51.1711 26.511C50.12 27.056 48.9132 27.3675 47.5506 27.3675C46.227 27.3285 44.9813 27.056 43.9302 26.511ZM49.9253 23.3188C50.5482 22.657 50.8596 21.8006 50.8596 20.7495C50.8596 19.6594 50.5482 18.803 49.9253 18.1801C49.3025 17.5183 48.5239 17.2069 47.5896 17.2069C46.6552 17.2069 45.8377 17.5183 45.2149 18.1801C44.592 18.8419 44.2806 19.6984 44.2806 20.7495C44.2806 21.8395 44.592 22.6959 45.2149 23.3188C45.8377 23.9806 46.6163 24.2921 47.5896 24.2921C48.5239 24.2921 49.3025 23.9806 49.9253 23.3188Z" fill="#333333"/>
<path d="M70.5971 14.1315V24.9928C70.5971 27.3286 69.9742 29.0804 68.7674 30.2483C67.5606 31.3772 65.7698 31.9612 63.3951 31.9612C62.1494 31.9612 60.9815 31.8054 59.8526 31.494C58.7236 31.1826 57.8282 30.7543 57.0886 30.1704L58.5679 27.4843C59.1129 27.9125 59.7747 28.3018 60.6311 28.5354C61.4487 28.8079 62.2662 28.9247 63.1226 28.9247C64.4073 28.9247 65.3416 28.6521 65.9645 28.0682C66.5873 27.4843 66.8988 26.6278 66.8988 25.421V24.9539C65.9255 26.0049 64.563 26.55 62.8501 26.55C61.6822 26.55 60.5922 26.2775 59.619 25.7714C58.6457 25.2653 57.8672 24.5256 57.2832 23.5913C56.6993 22.657 56.4268 21.567 56.4268 20.3602C56.4268 19.1534 56.6993 18.0633 57.2832 17.129C57.8672 16.1947 58.6457 15.4551 59.619 14.949C60.5922 14.4429 61.6822 14.1704 62.8501 14.1704C64.7187 14.1704 66.1202 14.7933 67.0934 16.0001V14.1704H70.5971V14.1315ZM65.9645 22.6181C66.5873 22.0341 66.8988 21.2945 66.8988 20.3602C66.8988 19.4259 66.5873 18.6473 65.9645 18.1023C65.3416 17.5183 64.5241 17.2458 63.5509 17.2458C62.5776 17.2458 61.7601 17.5183 61.1372 18.1023C60.5144 18.6862 60.2029 19.4259 60.2029 20.3602C60.2029 21.2945 60.5144 22.0731 61.1372 22.6181C61.7601 23.202 62.5776 23.4745 63.5509 23.4745C64.5241 23.4745 65.3416 23.202 65.9645 22.6181Z" fill="#333333"/>
<path d="M73.5557 9.45996H77.2929V27.1339H73.5557V9.45996Z" fill="#333333"/>
<path d="M90.0229 15.5719C91.074 16.5062 91.619 17.9466 91.619 19.8542V27.1729H88.1543V25.5768C87.4536 26.7836 86.1689 27.3675 84.2613 27.3675C83.2881 27.3675 82.4316 27.2118 81.692 26.8615C80.9523 26.5111 80.4073 26.0829 80.018 25.46C79.6287 24.8761 79.4341 24.2143 79.4341 23.4746C79.4341 22.2678 79.9012 21.3335 80.7966 20.6717C81.692 19.9709 83.0935 19.6595 84.9621 19.6595H87.9207C87.9207 18.842 87.6871 18.2191 87.181 17.7909C86.675 17.3627 85.9353 17.1291 84.9621 17.1291C84.2613 17.1291 83.5995 17.2459 82.9377 17.4405C82.2759 17.6741 81.7309 17.9466 81.2638 18.297L79.9402 15.6887C80.6409 15.1826 81.4584 14.8323 82.4706 14.5598C83.4438 14.2872 84.456 14.1705 85.4681 14.1705C87.4146 14.1315 88.9329 14.5987 90.0229 15.5719ZM86.8307 24.4089C87.3368 24.0975 87.6871 23.6692 87.8818 23.1242V21.8006H85.3124C83.7942 21.8006 83.0156 22.3067 83.0156 23.3189C83.0156 23.786 83.2102 24.1753 83.5606 24.4478C83.9499 24.7203 84.456 24.8761 85.0788 24.8761C85.7796 24.8371 86.3246 24.6814 86.8307 24.4089Z" fill="#333333"/>
<path d="M95.8619 26.9391C94.8497 26.6666 94.0322 26.3552 93.4482 25.9659L94.694 23.2798C95.2779 23.6301 95.9397 23.9416 96.7572 24.1752C97.5748 24.4087 98.3533 24.5255 99.1319 24.5255C100.689 24.5255 101.507 24.1362 101.507 23.3576C101.507 23.0073 101.273 22.7348 100.845 22.579C100.417 22.4233 99.7548 22.2676 98.8594 22.1897C97.8083 22.034 96.9519 21.8394 96.2512 21.6447C95.5504 21.4501 94.9665 21.0608 94.4604 20.5547C93.9543 20.0486 93.7208 19.27 93.7208 18.2968C93.7208 17.4793 93.9543 16.7786 94.4215 16.1557C94.8886 15.5328 95.5894 15.0267 96.4847 14.6764C97.3801 14.326 98.4312 14.1703 99.677 14.1703C100.572 14.1703 101.468 14.2871 102.363 14.4817C103.258 14.6764 103.998 14.9489 104.582 15.2992L103.336 17.9464C102.207 17.3236 100.962 17.0121 99.638 17.0121C98.8594 17.0121 98.2366 17.1289 97.8473 17.3625C97.458 17.5961 97.2633 17.8686 97.2633 18.2189C97.2633 18.6082 97.4969 18.8807 97.9251 19.0365C98.3534 19.1922 99.0541 19.3479 99.9884 19.5036C101.039 19.6983 101.896 19.854 102.558 20.0486C103.22 20.2433 103.803 20.5936 104.31 21.1387C104.816 21.6447 105.049 22.3844 105.049 23.3187C105.049 24.0973 104.816 24.837 104.348 25.4209C103.881 26.0438 103.181 26.5109 102.246 26.8613C101.351 27.2116 100.261 27.3674 98.9762 27.3674C97.9251 27.3284 96.874 27.2116 95.8619 26.9391Z" fill="#333333"/>
</svg>
