<svg width="24" height="24" viewBox="0 0 24 24" fill="none" xmlns="http://www.w3.org/2000/svg">
<path d="M3.99999 11H0.999998C0.734782 11 0.480429 11.1054 0.292893 11.2929C0.105357 11.4804 0 11.7348 0 12L0 23C0 23.2652 0.105357 23.5195 0.292893 23.7071C0.480429 23.8946 0.734782 24 0.999998 24H3.99999V11Z" fill="#201747"/>
<path d="M22.539 10.4C22.1635 9.96105 21.6975 9.60863 21.1729 9.36696C20.6483 9.12528 20.0776 9.00009 19.5 8.99998H13V3.99999C13 1.794 12.206 2.08553e-08 9.99999 2.08553e-08C9.78057 -4.47776e-05 9.56721 0.0720841 9.39283 0.205268C9.21844 0.338452 9.0927 0.525296 9.03499 0.736999L6 11V24H18.426C19.3827 24.0044 20.3091 23.664 21.0353 23.041C21.7614 22.418 22.2388 21.5543 22.38 20.608L23.456 13.608C23.543 13.0388 23.5062 12.4575 23.3479 11.9038C23.1897 11.3501 22.9137 10.8372 22.539 10.4Z" fill="#201747"/>
</svg>
